<svg width="90" height="90" viewBox="0 0 90 90" fill="none" xmlns="http://www.w3.org/2000/svg">
<path d="M30.899 77.674L30.8206 79.4514L32.4867 80.0752L30.7721 80.5499L30.6937 82.3272L29.7124 80.8432L27.9978 81.3179L29.106 79.9261L28.1247 78.4421L29.7908 79.0659L30.899 77.674Z" fill="#282F81"/>
<path d="M58.0422 77.674L58.1206 79.4514L56.4544 80.0752L58.169 80.5499L58.2475 82.3272L59.2287 80.8432L60.9433 81.3179L59.8352 79.9261L60.8165 78.4421L59.1503 79.0659L58.0422 77.674Z" fill="#282F81"/>
<path d="M44.1984 64.1488C43.7414 67.348 41.6277 72.242 40.4851 74.4319L41.342 75.0032C41.7229 74.1462 42.3953 72.8609 43.9128 70.4329C46.7692 65.8626 48.7687 67.8621 54.7672 61.8636C59.6231 56.7221 59.9087 53.58 59.9087 50.7236C58.4805 53.0088 51.6251 56.7221 51.0538 57.0077C50.4826 57.2934 44.7697 60.1498 44.1984 64.1488Z" fill="url(#paint0_linear_2485_117)"/>
<path d="M52.482 45.2983C55.6812 43.2416 58.722 39.2046 59.5789 37.5859C59.8646 39.2998 58.7661 41.8706 59.3374 44.4413C59.8134 45.7743 60.7786 49.4115 59.8646 51.0111C59.2933 52.1536 55.8656 54.4388 51.581 57.0096C48.1533 59.0662 45.7729 61.1037 45.0112 61.8655C45.1064 60.9133 45.3409 57.8093 45.3409 56.4383C45.3409 54.7244 45.0112 53.0106 46.1538 51.0111C47.2964 49.0116 48.483 47.869 52.482 45.2983Z" fill="url(#paint1_linear_2485_117)"/>
<path d="M51.3394 34.4438C53.8531 32.8442 54.6719 29.3974 54.7671 27.874C54.8623 28.4453 55.2813 29.8735 56.1953 31.0161C57.3379 32.4443 59.2933 35.3007 59.5789 37.8715C58.4364 40.4422 54.723 44.1556 51.0097 46.4407C48.039 48.2688 45.8682 50.9158 45.2969 52.1535C45.5825 49.2019 46.0836 42.4417 45.6266 41.2992C45.9122 38.7284 48.1974 36.4433 51.3394 34.4438Z" fill="url(#paint2_linear_2485_117)"/>
<path d="M43.9128 29.016C44.3889 27.8734 45.7409 25.3027 47.3405 24.1601C49.3972 22.789 49.2007 20.4468 49.0103 19.5898C49.6741 19.9881 50.2941 20.4482 50.8654 20.9591C52.8249 22.6008 54.0753 24.7653 54.7672 27.3022C54.7672 30.4442 53.2949 33.015 51.8667 34.1576C50.4385 35.3001 46.7252 36.7283 45.297 40.7273C44.8399 38.6707 44.1033 31.7772 43.9128 29.016Z" fill="url(#paint3_linear_2485_117)"/>
<path d="M43.8687 29.3016C43.0116 24.4457 45.1066 15.8764 45.5827 14.4482C45.9635 14.6387 46.8265 15.248 47.055 16.1621C47.2836 17.0761 48.2928 18.6376 48.7689 19.3041C49.2959 19.5898 49.9244 21.0751 49.0104 22.4462C47.8678 24.16 45.5826 25.3026 43.8687 29.3016Z" fill="url(#paint4_linear_2485_117)"/>
<path d="M43.8686 29.5872C43.183 25.7025 44.7255 17.3999 45.5824 14.4482C44.1543 14.4482 42.4845 15.3052 41.3419 17.5903C40.1993 19.8754 39.0127 20.4467 37.8701 20.7324C38.1558 24.16 42.4404 26.4452 43.8686 29.5872Z" fill="url(#paint5_linear_2485_117)"/>
<path d="M40.4853 25.3027C38.8857 23.9316 38.105 21.6846 37.9146 20.7324C33.6301 22.4463 33.2999 25.5883 33.0142 27.0165C32.7286 29.8729 36.4864 33.3006 37.3433 33.8719C38.2002 34.4432 43.0118 37.8709 45.5826 42.7268C45.0113 38.7278 43.8688 30.1586 43.8688 29.5873C43.8688 29.016 42.4848 27.0165 40.4853 25.3027Z" fill="url(#paint6_linear_2485_117)"/>
<path d="M38.2 35.015C33.5856 30.4448 33.0584 27.874 33.0584 26.7314C33.0584 27.874 32.2015 29.3022 31.3446 30.4448C29.9628 32.2871 29.0154 34.4438 29.0154 36.7289C29.8723 39.8709 34.7723 42.7274 38.7713 45.2981C41.9704 47.3548 44.3448 50.8205 45.0113 51.8679C45.1065 49.2971 45.5826 44.2127 45.5826 43.2986C45.5826 42.1561 43.0118 38.1571 38.2 35.015Z" fill="url(#paint7_linear_2485_117)"/>
<path d="M36.7718 44.4413C31.516 41.2421 29.4403 37.7764 29.0594 36.4434C29.6307 42.7275 27.8728 43.5844 27.3015 46.4408C28.1584 49.8685 34.7282 53.0106 38.4415 55.2957C41.4122 57.1238 43.8687 62.0559 44.44 63.8649C44.7256 62.7224 45.2398 58.7805 45.0113 56.7239C44.7828 54.6673 45.2017 53.1058 45.2969 52.4393C44.8209 51.2015 42.0276 47.6405 36.7718 44.4413Z" fill="url(#paint8_linear_2485_117)"/>
<path d="M33.9152 52.7245C29.3451 49.8681 27.7264 47.7734 27.3456 46.4404C27.06 49.2968 28.2024 49.5825 29.6306 52.7245C31.0588 55.8666 29.6306 59.0086 32.2014 61.2938C34.7722 63.5789 39.6281 65.5784 41.0563 67.5779C42.1989 69.2917 40.1993 72.1482 39.3424 73.5764C39.4376 73.6716 40.2696 74.2048 40.7267 74.4333C41.2979 73.2907 43.8688 67.2922 44.1544 64.4358C44.1544 61.0081 41.342 56.1522 33.9152 52.7245Z" fill="url(#paint9_linear_2485_117)"/>
<g filter="url(#filter0_d_2485_117)">
<path fill-rule="evenodd" clip-rule="evenodd" d="M44.2066 27.747C44.2055 27.6739 44.2046 27.6008 44.2037 27.5277C44.1738 24.9596 44.2644 22.3733 44.5218 20.0766C44.7798 17.7746 45.203 15.785 45.8274 14.3975L45.3064 14.1631C44.6454 15.632 44.2142 17.6918 43.9541 20.013C43.6934 22.3396 43.6023 24.9504 43.6325 27.5344C43.6336 27.6353 43.635 27.7363 43.6365 27.8371C43.2995 27.1841 42.7995 26.3962 42.1315 25.7783C42.0023 25.6588 41.8594 25.5303 41.7073 25.3936L41.7073 25.3935C41.1522 24.8943 40.4734 24.2838 39.88 23.5889C39.121 22.7 38.5543 21.7303 38.5543 20.7566H37.983C37.983 21.9412 38.6637 23.0442 39.4456 23.9599C40.0663 24.6869 40.7838 25.3318 41.3404 25.8321L41.3404 25.8322C41.4876 25.9645 41.6236 26.0867 41.7435 26.1977C42.8636 27.2337 43.4863 28.8319 43.5988 29.1882L43.676 29.4324C43.8249 33.8095 44.296 37.9081 44.8556 40.1605C44.5038 39.6282 44.0747 39.0726 43.5902 38.5212C42.4374 37.2093 40.9399 35.8865 39.3337 34.9147C38.1241 34.1829 36.779 32.7089 35.7062 31.0157C34.633 29.322 33.8635 27.458 33.7602 25.9682L33.1903 26.0077C33.3029 27.632 34.1265 29.59 35.2236 31.3215C36.3211 33.0536 37.7234 34.6081 39.038 35.4035C40.587 36.3407 42.0408 37.6234 43.1611 38.8983C44.2893 40.1823 45.0487 41.4235 45.2532 42.2715L45.2544 42.2712C45.4717 44.145 45.379 46.131 45.2224 48.3039C45.1933 48.7088 45.1619 49.12 45.13 49.5379L45.13 49.5381C45.0954 49.9921 45.0602 50.454 45.0265 50.924C44.7834 50.3225 44.4178 49.6948 43.8427 49.0071C42.8315 47.798 41.1782 46.4099 38.4229 44.6424C36.2388 43.2414 34.1941 41.6646 32.6094 40.0903C31.0172 38.5085 29.9196 36.9587 29.5794 35.6149L29.0256 35.7551C29.4048 37.253 30.594 38.8933 32.2068 40.4956C33.8272 42.1053 35.9059 43.7066 38.1144 45.1233C40.8499 46.878 42.4475 48.2293 43.4044 49.3736C44.3525 50.5072 44.6769 51.4436 44.8492 52.3911L44.9315 52.3762C44.8258 54.1972 44.7727 56.1384 44.8853 58.2208C44.9639 59.6764 44.8134 61.1906 44.5164 62.6906C44.0217 60.2918 42.2386 56.8612 37.6076 54.1032C34.5745 52.2968 32.3284 50.8878 30.7375 49.5752C29.1502 48.2657 28.2419 47.0733 27.8504 45.709L27.3013 45.8666C27.7371 47.3855 28.7407 48.6684 30.3739 50.0159C32.0036 51.3604 34.2866 52.7903 37.3153 54.5941C43.2251 58.1137 44.2643 62.6892 44.082 64.5268C43.8475 65.3849 43.575 66.2281 43.2807 67.0421C42.2735 69.8277 41.0192 72.2497 40.1919 73.7223L40.69 74.0021C41.5262 72.5137 42.7963 70.0617 43.8179 67.2363C44.1185 66.4048 44.3983 65.5392 44.6393 64.6547L44.6427 64.6551C44.6436 64.6477 44.6444 64.6402 44.6453 64.6327C44.7377 64.2923 44.8244 63.9492 44.9043 63.6041L45.0083 63.6188C45.2582 61.8436 46.6061 59.5259 51.3616 57.2651C56.21 54.9601 58.8624 52.1114 59.8043 50.9005L59.3533 50.5497C58.4581 51.7007 55.8731 54.4877 51.1163 56.7492C48.013 58.2245 46.2662 59.7574 45.3353 61.2041C45.4607 60.1913 45.5092 59.1795 45.4557 58.19C45.3563 56.3509 45.3876 54.6246 45.4703 52.9882L45.6169 53.03C46.0645 51.4635 47.6086 47.9607 51.3687 46.0423C53.3344 45.0394 55.1669 43.5233 56.611 41.9801C58.0512 40.4413 59.1286 38.8505 59.561 37.6849L59.0254 37.4862C58.6304 38.5509 57.6096 40.0771 56.1939 41.5898C54.7823 43.0981 53.0013 44.568 51.1091 45.5334C48.0235 47.1077 46.3622 49.689 45.5571 51.5307C45.6016 50.8685 45.651 50.2207 45.6994 49.5859C45.7313 49.1668 45.7628 48.7533 45.7922 48.3449C45.9732 45.8331 46.0758 43.5073 45.6907 41.2971C45.8076 40.4829 46.2442 39.462 46.9551 38.4528C47.7892 37.2686 48.9762 36.1368 50.3853 35.4132C51.9065 34.632 52.9774 33.3556 53.7072 32.0577C54.437 30.7599 54.8352 29.4244 55.004 28.4962L54.4419 28.394C54.2826 29.2699 53.9033 30.5435 53.2093 31.7777C52.5153 33.0118 51.5162 34.1902 50.1243 34.905C48.6203 35.6773 47.3665 36.8768 46.4881 38.1238C46.0304 38.7735 45.6678 39.4461 45.4263 40.0875C44.8562 37.8384 44.367 33.5571 44.2339 29.0013C44.5117 28.4086 44.9547 27.4747 45.5351 26.5275C46.1984 25.445 47.0204 24.3807 47.9484 23.7868C48.9991 23.1143 49.427 22.2975 49.534 21.5367C49.6389 20.7907 49.4308 20.1324 49.2726 19.7633L48.7475 19.9883C48.8846 20.3081 49.0529 20.8552 48.9682 21.4572C48.8856 22.0444 48.5581 22.7183 47.6405 23.3056C46.6002 23.9713 45.723 25.1273 45.048 26.229C44.7238 26.7581 44.4415 27.2828 44.2066 27.747Z" fill="url(#paint10_radial_2485_117)" shape-rendering="crispEdges"/>
</g>
<circle cx="44.7255" cy="44.7255" r="32.0263" stroke="black" stroke-width="0.571283"/>
<circle cx="44.7256" cy="44.7256" r="44.2744" stroke="black" stroke-width="0.571283"/>
<path d="M22.1982 77.8097L21.211 77.0568L22.4972 73.0787L22.486 73.0702L19.0179 75.3843L18.0419 74.64L21.0961 70.6352L21.7636 71.1442L19.4066 74.2348L19.4179 74.2433L22.8854 71.9997L23.4631 72.4403L22.2168 76.3778L22.228 76.3864L24.5849 73.2958L25.2524 73.8049L22.1982 77.8097Z" fill="#282F81"/>
<path d="M16.4148 73.1109L13.9209 70.4791L14.4739 69.9551L16.3613 71.9468L17.3188 71.0395L15.572 69.1963L16.0943 68.7013L17.841 70.5446L18.9111 69.5305L16.9897 67.5029L17.5427 66.9789L20.0706 69.6465L16.4148 73.1109Z" fill="#282F81"/>
<path d="M15.1656 66.6769C15.3223 66.5645 15.4368 66.4418 15.5092 66.3088C15.5816 66.1758 15.6199 66.0355 15.6239 65.8879C15.6242 65.7431 15.5976 65.5972 15.5443 65.4502C15.4844 65.3022 15.4023 65.1556 15.2982 65.0104C15.1858 64.8537 15.0726 64.7323 14.9587 64.6462C14.841 64.5628 14.7288 64.5073 14.6222 64.4797C14.5155 64.452 14.4149 64.4489 14.3204 64.4705C14.222 64.4947 14.1346 64.5343 14.0582 64.5891C13.9016 64.7015 13.813 64.82 13.7925 64.9447C13.7654 65.0683 13.7668 65.1831 13.7965 65.2891C13.8472 65.4727 13.9195 65.6784 14.0135 65.9061C14.1009 66.1328 14.2078 66.4149 14.3343 66.7525C14.4145 66.9612 14.4609 67.1508 14.4732 67.3213C14.4791 67.4908 14.4608 67.6428 14.4185 67.7773C14.3761 67.9119 14.3143 68.0315 14.2331 68.1361C14.1491 68.2368 14.0536 68.3256 13.9466 68.4024C13.7403 68.5504 13.5325 68.6359 13.3232 68.6587C13.1073 68.6805 12.8989 68.6563 12.6982 68.5863C12.4974 68.5162 12.3097 68.4078 12.1349 68.2611C11.9564 68.1172 11.8014 67.9535 11.6698 67.7701C11.5163 67.5561 11.401 67.335 11.324 67.1066C11.2404 66.8772 11.2033 66.652 11.2126 66.4312C11.2193 66.2065 11.2746 65.9932 11.3785 65.7912C11.4787 65.592 11.6358 65.4156 11.8497 65.2621L12.3638 65.9785C12.1138 66.1868 11.993 66.4095 12.0011 66.6468C12.0055 66.8868 12.0967 67.1309 12.2749 67.3793C12.3352 67.4633 12.4065 67.5425 12.4886 67.6166C12.567 67.6935 12.6532 67.7532 12.7473 67.7957C12.8376 67.8408 12.935 67.8636 13.0394 67.8639C13.1411 67.8604 13.2435 67.8217 13.3466 67.7476C13.4918 67.6435 13.5749 67.5173 13.5959 67.3691C13.6104 67.2198 13.5865 67.0575 13.5244 66.8822C13.5172 66.8641 13.4919 66.7926 13.4485 66.6675C13.3985 66.5413 13.344 66.4009 13.2852 66.2463C13.2264 66.0918 13.1703 65.941 13.117 65.7941C13.0571 65.646 13.0156 65.5398 12.9925 65.4753C12.9385 65.3115 12.9122 65.1538 12.9136 65.0024C12.9149 64.8509 12.94 64.7085 12.9889 64.575C13.0313 64.4404 13.095 64.3195 13.18 64.2121C13.2623 64.101 13.357 64.007 13.464 63.9303C13.6932 63.7658 13.9242 63.6723 14.1571 63.65C14.3834 63.6265 14.6029 63.6542 14.8157 63.733C15.0286 63.8118 15.2278 63.9322 15.4135 64.0942C15.603 64.2534 15.7703 64.4343 15.9156 64.6368C16.0829 64.8699 16.2119 65.1101 16.3026 65.3576C16.3933 65.605 16.4343 65.8477 16.4255 66.0855C16.4167 66.3233 16.3535 66.5539 16.2359 66.7771C16.1145 67.0032 15.9291 67.2086 15.6796 67.3933L15.1656 66.6769Z" fill="#282F81"/>
<path d="M12.3428 62.4452C12.5135 62.3556 12.6439 62.2499 12.734 62.1282C12.8241 62.0065 12.8814 61.8728 12.9058 61.7272C12.9261 61.5838 12.92 61.4356 12.8875 61.2827C12.8486 61.1278 12.7877 60.9712 12.7046 60.813C12.6149 60.6423 12.5196 60.5065 12.4188 60.4054C12.3137 60.3065 12.2103 60.236 12.1085 60.1939C12.0067 60.1518 11.9075 60.1348 11.8109 60.1431C11.7101 60.1535 11.6181 60.1806 11.5348 60.2243C11.3641 60.314 11.26 60.4191 11.2224 60.5398C11.1785 60.6584 11.164 60.7723 11.1788 60.8814C11.2036 61.0702 11.2468 61.2839 11.3083 61.5225C11.3636 61.7591 11.4304 62.0533 11.509 62.4051C11.5596 62.6228 11.5793 62.817 11.568 62.9876C11.5503 63.1563 11.5112 63.3043 11.4506 63.4317C11.3901 63.5591 11.3123 63.669 11.2174 63.7614C11.1203 63.8496 11.0135 63.9243 10.8969 63.9855C10.6721 64.1036 10.4544 64.1595 10.244 64.1531C10.0271 64.1449 9.82415 64.0921 9.63499 63.9949C9.44584 63.8977 9.2749 63.7644 9.12216 63.595C8.96526 63.4278 8.83433 63.2442 8.72937 63.0444C8.60691 62.8112 8.52334 62.5763 8.47864 62.3394C8.42759 62.1007 8.42198 61.8726 8.4618 61.6551C8.49945 61.4335 8.58372 61.2299 8.71464 61.0442C8.84139 60.8608 9.02134 60.7079 9.25448 60.5854L9.66449 61.366C9.38816 61.5377 9.23762 61.7416 9.21289 61.9777C9.184 62.216 9.24062 62.4704 9.38276 62.741C9.43086 62.8326 9.49047 62.9208 9.56158 63.0057C9.62853 63.0927 9.70568 63.1637 9.79302 63.2187C9.8762 63.276 9.96947 63.312 10.0728 63.3267C10.174 63.3373 10.2808 63.3131 10.3932 63.2541C10.5514 63.171 10.6512 63.0575 10.6925 62.9136C10.7274 62.7678 10.7263 62.6037 10.689 62.4215C10.6844 62.4026 10.6692 62.3283 10.6435 62.1984C10.6114 62.0665 10.5769 61.9199 10.54 61.7587C10.5032 61.5975 10.4685 61.4404 10.436 61.2875C10.3971 61.1326 10.3707 61.0217 10.3567 60.9546C10.326 60.7849 10.3218 60.6251 10.344 60.4753C10.3662 60.3255 10.4108 60.1879 10.4777 60.0624C10.5383 59.935 10.6181 59.824 10.7172 59.7295C10.8141 59.6308 10.9208 59.5508 11.0374 59.4896C11.2872 59.3584 11.5289 59.2978 11.7626 59.3079C11.99 59.316 12.2036 59.3737 12.4034 59.4812C12.6033 59.5887 12.784 59.7355 12.9455 59.9216C13.1111 60.1055 13.2519 60.3078 13.3678 60.5284C13.5012 60.7824 13.5957 61.0382 13.6513 61.2958C13.707 61.5534 13.714 61.7994 13.6724 62.0337C13.6308 62.268 13.5363 62.4876 13.389 62.6925C13.2374 62.8996 13.0254 63.0774 12.7528 63.2258L12.3428 62.4452Z" fill="#282F81"/>
<path d="M7.1443 59.5214L6.34611 57.2523C6.16197 56.7289 6.13699 56.2965 6.27117 55.9552C6.40534 55.6138 6.67428 55.3722 7.07797 55.2302C7.30422 55.1506 7.50446 55.1175 7.67869 55.131C7.8485 55.1461 7.99558 55.1816 8.11995 55.2375C8.23988 55.295 8.33542 55.3611 8.40655 55.4358C8.47613 55.5061 8.52459 55.5588 8.55195 55.594L8.56525 55.5894C8.54916 55.5153 8.54481 55.432 8.55221 55.3397C8.55805 55.2429 8.58841 55.145 8.6433 55.0459C8.69374 54.9484 8.77327 54.8557 8.88188 54.7676C8.98893 54.6751 9.13561 54.5961 9.32193 54.5306C9.60141 54.4322 9.84947 54.3226 10.0661 54.2015C10.2767 54.0775 10.4153 53.954 10.4816 53.831L10.7953 54.7227C10.7151 54.8207 10.6153 54.8982 10.4957 54.9552C10.3746 55.0077 10.2564 55.0543 10.1411 55.0949C9.92371 55.1713 9.74207 55.2502 9.59616 55.3314C9.44582 55.4142 9.33212 55.509 9.25506 55.6159C9.17356 55.7243 9.13026 55.8492 9.12515 55.9906C9.11849 56.1276 9.1487 56.2914 9.21581 56.4822L9.6465 57.7066L11.6029 57.0184L11.8954 57.8502L7.1443 59.5214ZM9.01434 57.9289L8.53449 56.5648C8.44086 56.2986 8.30776 56.1186 8.13517 56.0248C7.95814 55.9325 7.7432 55.9309 7.49034 56.0198C7.33951 56.0729 7.22532 56.138 7.14776 56.2151C7.06577 56.2938 7.0122 56.3824 6.98706 56.481C6.96035 56.5751 6.95607 56.6764 6.97422 56.7846C6.9908 56.8885 7.01782 56.9936 7.05527 57.1001L7.53044 58.4509L9.01434 57.9289Z" fill="#282F81"/>
<path d="M8.47423 52.596C8.66347 52.5591 8.81873 52.4953 8.93999 52.4046C9.06125 52.3139 9.15448 52.2023 9.21969 52.0698C9.28028 51.9382 9.31695 51.7945 9.3297 51.6387C9.33694 51.4792 9.32346 51.3117 9.28927 51.1363C9.25238 50.9471 9.20012 50.7896 9.13249 50.6638C9.06024 50.539 8.9814 50.4418 8.89596 50.3722C8.81053 50.3026 8.72037 50.2579 8.62547 50.238C8.52596 50.2191 8.43004 50.2186 8.33773 50.2366C8.14848 50.2735 8.01856 50.3444 7.94795 50.4492C7.87183 50.5502 7.82521 50.6551 7.80807 50.7639C7.77764 50.9519 7.75767 51.169 7.74817 51.4152C7.73315 51.6577 7.71277 51.9587 7.68704 52.3182C7.67304 52.5414 7.63613 52.733 7.57632 52.8932C7.511 53.0497 7.43105 53.1802 7.33646 53.2849C7.24188 53.3896 7.13587 53.4726 7.01845 53.5338C6.90012 53.5904 6.77633 53.6313 6.64709 53.6565C6.39784 53.705 6.17331 53.6961 5.9735 53.6297C5.76818 53.5595 5.58887 53.4507 5.43557 53.3033C5.28227 53.1559 5.15678 52.9791 5.0591 52.773C4.95681 52.5678 4.88407 52.3544 4.84088 52.1328C4.7905 51.8743 4.77788 51.6252 4.80303 51.3856C4.82267 51.1422 4.88277 50.9221 4.98334 50.7252C5.083 50.5237 5.22218 50.3528 5.40086 50.2126C5.57493 50.0733 5.79121 49.9784 6.04969 49.928L6.21839 50.7935C5.9044 50.8786 5.70168 51.0307 5.61023 51.2498C5.51416 51.4697 5.49536 51.7297 5.55385 52.0298C5.57364 52.1313 5.60542 52.2329 5.64919 52.3346C5.68835 52.4371 5.74186 52.5273 5.80973 52.6051C5.87298 52.6838 5.952 52.7451 6.04678 52.7889C6.14066 52.8281 6.24991 52.8355 6.37454 52.8112C6.54994 52.7771 6.67807 52.697 6.75892 52.571C6.83426 52.4414 6.88022 52.2839 6.8968 52.0986C6.89782 52.0792 6.90464 52.0036 6.91728 51.8718C6.92439 51.7363 6.93343 51.586 6.94438 51.4209C6.95533 51.2559 6.96718 51.0955 6.97993 50.9397C6.98717 50.7802 6.99372 50.6663 6.99959 50.5981C7.01887 50.4266 7.06067 50.2724 7.12497 50.1352C7.18928 49.9981 7.27148 49.8791 7.37158 49.7781C7.46616 49.6735 7.57448 49.5901 7.69652 49.528C7.81767 49.4612 7.94286 49.4153 8.0721 49.3901C8.34905 49.3361 8.598 49.3474 8.81898 49.4241C9.03443 49.4971 9.22247 49.6138 9.38308 49.7741C9.5437 49.9345 9.67464 50.127 9.77592 50.3516C9.88181 50.5753 9.95859 50.8094 10.0063 51.0541C10.0612 51.3356 10.0783 51.6078 10.0576 51.8705C10.037 52.1333 9.9731 52.3709 9.866 52.5834C9.7589 52.796 9.60537 52.9792 9.4054 53.1332C9.20083 53.288 8.94667 53.3975 8.64292 53.4615L8.47423 52.596Z" fill="#282F81"/>
<path d="M8.48227 48.1706L8.3917 47.1943L9.33992 47.1063L9.43048 48.0826L8.48227 48.1706Z" fill="#282F81"/>
<path d="M4.15056 43.3909L4.30517 41.1743C4.33004 40.8177 4.40193 40.5305 4.52085 40.3125C4.63976 40.0945 4.78088 39.9299 4.94419 39.8188C5.10751 39.7076 5.28212 39.6373 5.46803 39.6078C5.65426 39.5737 5.82478 39.562 5.97959 39.5728C6.1344 39.5836 6.30165 39.6188 6.48133 39.6785C6.65666 39.7332 6.81747 39.8269 6.96377 39.9596C7.11008 40.0924 7.22698 40.275 7.31448 40.5074C7.39729 40.7394 7.42626 41.0337 7.40139 41.3902L7.30813 42.7272L9.23623 42.8617L9.17488 43.7413L4.15056 43.3909ZM6.59037 42.6772L6.68019 41.3894C6.68707 41.2909 6.68003 41.1891 6.65908 41.0839C6.63813 40.9787 6.60011 40.8818 6.54501 40.7931C6.48555 40.6994 6.40602 40.6231 6.30641 40.5643C6.20244 40.5005 6.0707 40.463 5.9112 40.4519C5.74701 40.4405 5.60932 40.4544 5.49815 40.4938C5.38698 40.5332 5.29812 40.5906 5.23157 40.6661C5.16033 40.7413 5.10939 40.8297 5.07873 40.9312C5.04808 41.0328 5.02866 41.1422 5.02048 41.2595L4.92967 42.5613L6.59037 42.6772Z" fill="#282F81"/>
<path d="M5.72256 35.6924C5.6635 35.9538 5.66495 36.1928 5.72693 36.4093C5.78995 36.6212 5.89743 36.807 6.04938 36.9667C6.19675 37.1253 6.37608 37.2598 6.58737 37.3702C6.7997 37.4761 7.02283 37.5554 7.25677 37.6082C7.49071 37.6611 7.72628 37.6854 7.96348 37.6811C8.20172 37.6723 8.42376 37.6284 8.62959 37.5496C8.83084 37.4697 9.00546 37.3476 9.15345 37.1834C9.30248 37.0146 9.40652 36.7994 9.46559 36.5379C9.52466 36.2765 9.52268 36.0398 9.45967 35.8279C9.39769 35.6114 9.29302 35.4238 9.14565 35.2652C8.9937 35.1055 8.81156 34.9728 8.59923 34.867C8.38793 34.7565 8.16532 34.6749 7.93138 34.6221C7.69744 34.5692 7.46135 34.5472 7.22312 34.5561C6.98591 34.5603 6.76669 34.6024 6.56544 34.6823C6.3596 34.7612 6.18217 34.885 6.03315 35.0538C5.88516 35.2181 5.78163 35.4309 5.72256 35.6924ZM5.02075 35.5338C5.10365 35.1668 5.24654 34.8544 5.44944 34.5965C5.65337 34.334 5.8951 34.1283 6.17464 33.9793C6.45417 33.8303 6.76182 33.7383 7.09757 33.7033C7.43436 33.6637 7.77706 33.6832 8.12568 33.762C8.47888 33.8418 8.79901 33.972 9.08605 34.1525C9.37414 34.3285 9.61235 34.5438 9.8007 34.7985C9.98904 35.0532 10.1189 35.3428 10.1901 35.6675C10.2579 35.9865 10.2503 36.3295 10.1674 36.6965C10.0845 37.0635 9.94338 37.3787 9.74404 37.6422C9.54114 37.9001 9.29993 38.1036 9.02039 38.2525C8.74086 38.4015 8.4327 38.4958 8.09591 38.5354C7.76016 38.5705 7.41568 38.5481 7.06248 38.4683C6.71386 38.3896 6.39551 38.2622 6.10742 38.0862C5.82038 37.9057 5.58268 37.6881 5.39434 37.4334C5.20599 37.1787 5.07566 36.8913 5.00333 36.5712C4.93204 36.2466 4.93784 35.9008 5.02075 35.5338Z" fill="#282F81"/>
<path d="M6.24924 31.4514L6.56451 30.6279L10.5566 32.1564L11.4722 29.765L12.1836 30.0374L10.9528 33.2522L6.24924 31.4514Z" fill="#282F81"/>
<path d="M8.09158 26.9945L8.48211 26.2039L12.9977 28.4347L12.6071 29.2252L8.09158 26.9945Z" fill="#282F81"/>
<path d="M12.4264 25.9239C12.5898 26.0262 12.7468 26.0857 12.8973 26.1023C13.0479 26.1189 13.1922 26.1011 13.3303 26.0489C13.4645 25.9942 13.5894 25.9143 13.7051 25.8092C13.8194 25.6977 13.924 25.5662 14.0188 25.4147C14.1212 25.2513 14.1906 25.1006 14.2271 24.9626C14.2596 24.822 14.2685 24.6972 14.2536 24.588C14.2388 24.4788 14.2035 24.3845 14.1477 24.3052C14.088 24.2234 14.0183 24.1576 13.9386 24.1076C13.7752 24.0053 13.6319 23.9683 13.5087 23.9966C13.3841 24.0184 13.2784 24.0631 13.1916 24.1309C13.0409 24.2474 12.878 24.3923 12.7029 24.5656C12.5263 24.7324 12.3057 24.9383 12.0413 25.1833C11.8787 25.3367 11.7208 25.4514 11.5677 25.5275C11.4131 25.5972 11.2655 25.6379 11.1249 25.6497C10.9843 25.6616 10.8503 25.6497 10.7227 25.6142C10.5976 25.5747 10.4793 25.52 10.3677 25.4501C10.1525 25.3153 9.99459 25.1554 9.89408 24.9704C9.79207 24.7789 9.73544 24.5769 9.72417 24.3646C9.71291 24.1522 9.74203 23.9374 9.81152 23.7201C9.87703 23.5004 9.9697 23.2948 10.0895 23.1035C10.2293 22.8803 10.3902 22.6898 10.5723 22.532C10.7529 22.3677 10.9472 22.248 11.1552 22.1729C11.3656 22.0938 11.5839 22.0641 11.8102 22.0838C12.0325 22.1009 12.2553 22.1794 12.4785 22.3192L12.0104 23.0665C11.723 22.9142 11.471 22.8868 11.2546 22.9843C11.0342 23.0793 10.8428 23.2563 10.6806 23.5153C10.6257 23.603 10.5794 23.6989 10.542 23.8031C10.5005 23.9047 10.478 24.0071 10.4744 24.1103C10.4668 24.211 10.4827 24.3097 10.5219 24.4065C10.5637 24.4992 10.6384 24.5793 10.746 24.6467C10.8975 24.7415 11.0458 24.7706 11.1908 24.7339C11.3344 24.6906 11.4756 24.607 11.6143 24.483C11.6283 24.4696 11.6849 24.419 11.7842 24.3314C11.882 24.2373 11.9912 24.1337 12.112 24.0207C12.2327 23.9076 12.3509 23.7986 12.4667 23.6935C12.581 23.5819 12.6635 23.5033 12.7144 23.4575C12.8456 23.3454 12.9815 23.2613 13.1222 23.2051C13.2628 23.1489 13.4041 23.1181 13.5462 23.1128C13.6868 23.101 13.8229 23.1141 13.9544 23.1521C14.0885 23.1861 14.2113 23.2381 14.3229 23.3079C14.562 23.4577 14.7361 23.6361 14.845 23.8431C14.9525 24.0436 15.0101 24.2572 15.0179 24.484C15.0257 24.7108 14.9898 24.9409 14.9103 25.1741C14.8348 25.4098 14.7309 25.6332 14.5986 25.8445C14.4464 26.0876 14.2729 26.298 14.0784 26.4758C13.8838 26.6536 13.6748 26.7835 13.4514 26.8655C13.228 26.9475 12.9907 26.9765 12.7395 26.9523C12.4843 26.9256 12.2239 26.8319 11.9584 26.6712L12.4264 25.9239Z" fill="#282F81"/>
<path d="M12.3204 20.0035L14.6446 17.2207L15.2293 17.7091L13.4703 19.8151L14.4827 20.6607L16.1106 18.7117L16.6628 19.1729L15.0349 21.1219L16.1664 22.067L17.9571 19.9231L18.5418 20.4115L16.1859 23.2321L12.3204 20.0035Z" fill="#282F81"/>
<path d="M15.5124 16.2682L18.5112 13.5059L19.0274 14.0662L17.8496 15.1511L20.7458 18.2951L20.0973 18.8925L17.2011 15.7485L16.0286 16.8285L15.5124 16.2682Z" fill="#282F81"/>
<path d="M19.2967 12.8569L22.6201 10.495L23.0614 11.116L21.7562 12.0436L24.2325 15.528L23.5137 16.0388L21.0375 12.5544L19.738 13.4778L19.2967 12.8569Z" fill="#282F81"/>
<path d="M26.5077 11.7911L23.4086 9.96311L24.3136 9.48655L26.545 10.8627L26.6542 8.25407L27.528 7.79395L27.2879 11.3803L28.2082 13.1279L27.428 13.5387L26.5077 11.7911Z" fill="#282F81"/>
<path d="M32.7087 9.39614C32.7626 9.58129 32.8401 9.73014 32.9414 9.84272C33.0427 9.9553 33.1623 10.0381 33.3001 10.0911C33.4366 10.1395 33.583 10.1631 33.7394 10.1617C33.8989 10.1545 34.0644 10.126 34.236 10.0761C34.4212 10.0222 34.5733 9.95598 34.6925 9.87727C34.8103 9.79404 34.9 9.70674 34.9616 9.61538C35.0232 9.52401 35.0596 9.43018 35.0707 9.33388C35.0806 9.23306 35.0724 9.1375 35.0462 9.04719C34.9923 8.86204 34.9101 8.73904 34.7993 8.67819C34.6918 8.6115 34.5831 8.57454 34.4732 8.5673C34.2833 8.55396 34.0653 8.55368 33.8192 8.56644C33.5763 8.57338 33.2747 8.58026 32.9143 8.58709C32.6908 8.59329 32.4966 8.57384 32.3317 8.52874C32.17 8.47781 32.0327 8.40997 31.9199 8.32522C31.8071 8.24048 31.7149 8.14239 31.6434 8.03097C31.5763 7.91824 31.5244 7.79865 31.4877 7.67221C31.4168 7.42837 31.4054 7.20395 31.4535 6.99895C31.5049 6.78813 31.597 6.59973 31.73 6.43375C31.8629 6.26777 32.0277 6.12683 32.2241 6.01095C32.4193 5.89054 32.6253 5.79883 32.842 5.73582C33.0949 5.6623 33.3418 5.62725 33.5828 5.63066C33.8269 5.62824 34.0516 5.66822 34.2568 5.7506C34.4664 5.83167 34.6491 5.95485 34.8049 6.12014C34.9594 6.28092 35.0734 6.48775 35.1469 6.74063L34.3003 6.98678C34.1871 6.68176 34.0173 6.4936 33.7909 6.42229C33.5632 6.34648 33.3025 6.35123 33.009 6.43656C32.9097 6.46545 32.8113 6.50627 32.714 6.55904C32.6154 6.6073 32.5305 6.66874 32.4591 6.74335C32.3864 6.81345 32.3326 6.89768 32.2975 6.99602C32.2669 7.09306 32.2694 7.20254 32.3048 7.32446C32.3547 7.49606 32.446 7.61643 32.5788 7.68558C32.7147 7.74891 32.8757 7.78046 33.0617 7.78025C33.0811 7.77951 33.157 7.77949 33.2894 7.78017C33.4251 7.77502 33.5755 7.77045 33.7409 7.76645C33.9062 7.76246 34.0671 7.75978 34.2234 7.75841C34.3829 7.75121 34.4969 7.74746 34.5654 7.74714C34.7379 7.75087 34.8953 7.77856 35.0376 7.83023C35.18 7.88189 35.306 7.95301 35.4155 8.04359C35.5283 8.12834 35.6212 8.22868 35.6941 8.34461C35.7715 8.45924 35.8285 8.57977 35.8653 8.70621C35.9441 8.97715 35.9552 9.22612 35.8988 9.45311C35.8455 9.67428 35.7463 9.87208 35.6011 10.0465C35.456 10.2209 35.2761 10.3687 35.0615 10.4899C34.8483 10.6155 34.622 10.7131 34.3827 10.7827C34.1072 10.8628 33.8377 10.9044 33.5742 10.9076C33.3107 10.9107 33.0682 10.8686 32.8469 10.7811C32.6256 10.6936 32.4292 10.5573 32.2578 10.372C32.0851 10.1823 31.9532 9.93901 31.8621 9.64229L32.7087 9.39614Z" fill="#282F81"/>
<path d="M38.8264 5.18422C38.5607 5.21948 38.3371 5.30372 38.1555 5.43692C37.9786 5.56951 37.8416 5.73475 37.7445 5.93265C37.6469 6.12588 37.5829 6.34073 37.5526 6.5772C37.527 6.81305 37.5299 7.04985 37.5615 7.2876C37.593 7.52535 37.6519 7.75473 37.7382 7.97573C37.8291 8.19611 37.9472 8.38917 38.0926 8.55489C38.2373 8.71595 38.4123 8.83741 38.6177 8.91926C38.8277 9.0005 39.0656 9.02348 39.3313 8.98821C39.597 8.95295 39.8183 8.86902 39.9952 8.73643C40.1768 8.60323 40.3164 8.44001 40.4141 8.24678C40.5112 8.04888 40.5726 7.83201 40.5982 7.59616C40.6285 7.35969 40.6278 7.12258 40.5963 6.88483C40.5647 6.64708 40.5035 6.41801 40.4126 6.19763C40.3263 5.97663 40.2108 5.7856 40.0661 5.62454C39.9208 5.45881 39.7431 5.33533 39.5331 5.2541C39.3277 5.17224 39.0922 5.14895 38.8264 5.18422ZM38.7318 4.47097C39.1047 4.42147 39.4473 4.44716 39.7596 4.54804C40.0765 4.64829 40.3533 4.80368 40.5899 5.01421C40.8266 5.22474 41.0196 5.48139 41.1689 5.78415C41.3228 6.08631 41.4233 6.41453 41.4704 6.76882C41.518 7.12778 41.5069 7.47318 41.4371 7.80503C41.372 8.13626 41.2526 8.43436 41.079 8.69933C40.9055 8.9643 40.6788 9.18652 40.399 9.36597C40.1232 9.54013 39.7989 9.65197 39.426 9.70146C39.053 9.75096 38.7084 9.72791 38.3921 9.63232C38.0799 9.53144 37.8054 9.37574 37.5687 9.16521C37.3321 8.95469 37.1367 8.69835 36.9828 8.3962C36.8335 8.09343 36.735 7.76256 36.6874 7.40361C36.6404 7.04931 36.6494 6.70655 36.7146 6.37532C36.7844 6.04347 36.9061 5.74506 37.0796 5.48009C37.2532 5.21512 37.4776 4.99322 37.7527 4.81439C38.0325 4.63494 38.3588 4.52046 38.7318 4.47097Z" fill="#282F81"/>
<path d="M43.1104 4.13775L44.3508 4.18931L45.5755 8.18678L45.5896 8.18736L47.1066 4.30385L48.3329 4.35481L48.1237 9.387L47.285 9.35214L47.4464 5.46876L47.4323 5.46817L45.8755 9.29355L45.1495 9.26338L43.9155 5.322L43.9014 5.32142L43.74 9.20479L42.9013 9.16994L43.1104 4.13775Z" fill="#282F81"/>
<path d="M51.8882 4.95219L52.8063 5.14501L53.6696 10.4727L52.7446 10.2784L52.556 8.87656L50.5886 8.46339L49.8521 9.67099L48.9615 9.48398L51.8882 4.95219ZM50.961 7.85686L52.466 8.1729L52.1724 5.89844L52.1517 5.89409L50.961 7.85686Z" fill="#282F81"/>
<path d="M55.5244 9.32507C55.4585 9.50628 55.4332 9.67221 55.4485 9.82287C55.4638 9.97354 55.5114 10.1109 55.5914 10.2351C55.6729 10.3548 55.7772 10.4603 55.9042 10.5515C56.0371 10.6398 56.1876 10.7146 56.3556 10.7756C56.5368 10.8415 56.6987 10.8779 56.8413 10.8847C56.9855 10.8871 57.1095 10.8696 57.2131 10.8322C57.3168 10.7949 57.4016 10.7406 57.4675 10.6695C57.535 10.594 57.5848 10.512 57.6169 10.4236C57.6828 10.2424 57.689 10.0946 57.6356 9.98005C57.5882 9.86273 57.5223 9.76872 57.4379 9.69801C57.2924 9.57508 57.1166 9.44612 56.9105 9.31114C56.7104 9.17334 56.4629 9.00079 56.168 8.79349C55.984 8.66654 55.8388 8.53617 55.7323 8.40239C55.6318 8.26579 55.5611 8.12999 55.5201 7.995C55.4791 7.86001 55.4627 7.72642 55.4707 7.59423C55.4831 7.46366 55.5118 7.33649 55.5568 7.21275C55.6436 6.97409 55.7669 6.78625 55.9268 6.64924C56.0928 6.50941 56.2784 6.41177 56.4837 6.35632C56.689 6.30086 56.9051 6.28438 57.1321 6.30686C57.3608 6.32493 57.5811 6.37253 57.7933 6.44966C58.0408 6.53964 58.2607 6.65715 58.4532 6.80218C58.6517 6.94439 58.8094 7.10931 58.9263 7.29694C59.0477 7.48616 59.1224 7.69348 59.1505 7.91887C59.1803 8.13984 59.1502 8.37408 59.0602 8.62158L58.2315 8.32029C58.3203 8.0073 58.2944 7.75519 58.1537 7.56396C58.0147 7.3683 57.8016 7.21825 57.5143 7.1138C57.417 7.07845 57.3136 7.05335 57.2039 7.03849C57.0958 7.01921 56.991 7.01861 56.8893 7.0367C56.7893 7.05036 56.6961 7.08653 56.6097 7.14519C56.5277 7.20546 56.4651 7.29526 56.4217 7.41459C56.3606 7.58253 56.3632 7.7336 56.4295 7.86779C56.5019 7.99917 56.6132 8.11969 56.7634 8.22937C56.7795 8.24022 56.8408 8.28501 56.9472 8.36375C57.0597 8.43968 57.1839 8.52485 57.3197 8.61926C57.4555 8.71367 57.5869 8.80647 57.7139 8.89767C57.8468 8.98605 57.9411 9.05033 57.9965 9.0905C58.1335 9.19536 58.2442 9.31066 58.3286 9.43641C58.413 9.56216 58.4726 9.69394 58.5076 9.83175C58.5486 9.96674 58.5643 10.1025 58.5546 10.2391C58.5494 10.3774 58.5243 10.5083 58.4793 10.6321C58.3829 10.8973 58.2449 11.1048 58.0653 11.2547C57.8918 11.4017 57.6949 11.5028 57.4747 11.5578C57.2546 11.6129 57.0221 11.6259 56.7775 11.597C56.5312 11.5725 56.2909 11.5177 56.0567 11.4325C55.7871 11.3345 55.545 11.209 55.3304 11.0559C55.1159 10.9029 54.9451 10.7257 54.8182 10.5244C54.6912 10.3231 54.6132 10.0971 54.5843 9.84642C54.557 9.5913 54.5941 9.31709 54.6957 9.02379L55.5244 9.32507Z" fill="#282F81"/>
<path d="M61.2886 7.96117L62.0642 8.38055L60.6685 10.9618C60.588 11.1107 60.5126 11.2651 60.4422 11.4249C60.376 11.5869 60.3425 11.7478 60.3415 11.9077C60.347 12.0657 60.3967 12.2209 60.4908 12.3733C60.5889 12.5279 60.7641 12.6735 61.0165 12.8099C61.2688 12.9463 61.4845 13.0122 61.6635 13.0074C61.8466 13.0048 62.0037 12.9615 62.1348 12.8773C62.2722 12.7912 62.3885 12.675 62.4837 12.5287C62.583 12.3846 62.6729 12.238 62.7534 12.0891L64.1491 9.50784L64.9247 9.92722L63.3915 12.7629C63.2372 13.0483 63.0595 13.2731 62.8586 13.437C62.6576 13.601 62.4374 13.7118 62.1977 13.7694C61.9645 13.825 61.7172 13.8276 61.4558 13.7772C61.1944 13.7267 60.9272 13.6277 60.6541 13.4801C60.3811 13.3324 60.1519 13.1631 59.9666 12.972C59.7812 12.7809 59.6459 12.5714 59.5606 12.3435C59.4817 12.1137 59.4559 11.8699 59.4831 11.6119C59.5103 11.354 59.601 11.0823 59.7554 10.7969L61.2886 7.96117Z" fill="#282F81"/>
<path d="M66.6672 11.0237L67.4087 11.5869L66.9956 15.9326L67.0068 15.9411L69.2511 12.9864L69.9196 13.4942L66.8731 17.5049L66.1316 16.9416L66.5461 12.6059L66.5292 12.5931L64.2892 15.5421L63.6207 15.0344L66.6672 11.0237Z" fill="#282F81"/>
<path d="M71.5357 14.9004L72.9854 16.4031C73.2531 16.6807 73.4375 16.9667 73.5387 17.2612C73.6398 17.5556 73.6695 17.8472 73.6277 18.1358C73.5893 18.4211 73.4895 18.7003 73.3283 18.9735C73.1703 19.25 72.9661 19.5091 72.7157 19.7507C72.4652 19.9923 72.199 20.1871 71.917 20.335C71.6382 20.4863 71.3539 20.5776 71.0639 20.609C70.7774 20.6371 70.4888 20.5953 70.1982 20.4837C69.9075 20.372 69.6283 20.1774 69.3606 19.8999L67.9109 18.3972L71.5357 14.9004ZM69.0409 18.5322L69.6433 19.1567C69.8817 19.4037 70.1081 19.5741 70.3226 19.6678C70.5437 19.7615 70.7543 19.7969 70.9542 19.7739C71.1609 19.751 71.3567 19.6797 71.5418 19.56C71.7335 19.4404 71.9207 19.2924 72.1035 19.1161C72.2863 18.9398 72.4392 18.7596 72.5622 18.5756C72.6919 18.3917 72.7702 18.1985 72.7971 17.9961C72.8307 17.7939 72.8029 17.5822 72.7137 17.3611C72.6312 17.1401 72.4708 16.906 72.2325 16.659L71.6301 16.0345L69.0409 18.5322Z" fill="#282F81"/>
<path d="M76.4717 20.5136L77.0169 21.2771L74.0454 25.7826L73.4961 25.0134L74.3064 23.854L73.1381 22.218L71.7785 22.6081L71.2497 21.8676L76.4717 20.5136ZM73.8229 22.0237L74.7165 23.2752L76.0403 21.4024L76.028 21.3852L73.8229 22.0237Z" fill="#282F81"/>
<path d="M78.9213 24.1584L80.0179 26.2993C80.2708 26.7932 80.3538 27.2183 80.2668 27.5746C80.1798 27.9308 79.9459 28.2065 79.565 28.4016C79.3515 28.5109 79.1576 28.5706 78.9831 28.5807C78.8128 28.5887 78.6623 28.5733 78.5315 28.5346C78.4049 28.4938 78.3014 28.4412 78.2208 28.3768C78.1424 28.3165 78.0873 28.2708 78.0555 28.2396L78.0429 28.246C78.0688 28.3172 78.0843 28.3991 78.0894 28.4916C78.0967 28.5883 78.0798 28.6894 78.0388 28.795C78.0019 28.8984 77.9356 29.001 77.8398 29.1029C77.7462 29.209 77.6115 29.307 77.4357 29.397C77.172 29.5321 76.941 29.6742 76.7426 29.8233C76.5506 29.9745 76.43 30.1156 76.3808 30.2464L75.9499 29.4051C76.0162 29.2972 76.1047 29.207 76.2154 29.1344C76.3283 29.066 76.4392 29.0039 76.548 28.9482C76.7531 28.8432 76.9225 28.7406 77.0561 28.6404C77.1939 28.5381 77.2938 28.4289 77.3558 28.3126C77.422 28.1942 77.448 28.0646 77.4341 27.9238C77.4222 27.7872 77.3702 27.6289 77.278 27.4489L76.6864 26.2937L74.8405 27.2391L74.4386 26.4543L78.9213 24.1584ZM77.2828 25.9882L77.942 27.2753C78.0706 27.5264 78.2268 27.6869 78.4104 27.7566C78.5983 27.8242 78.8115 27.7969 79.05 27.6747C79.1924 27.6018 79.2967 27.5219 79.3632 27.435C79.4339 27.346 79.475 27.251 79.4866 27.1499C79.5004 27.053 79.491 26.9522 79.4585 26.8473C79.428 26.7467 79.3871 26.6461 79.3357 26.5457L78.6829 25.2711L77.2828 25.9882Z" fill="#282F81"/>
<path d="M81.9604 30.8391L82.261 31.7278L78.1117 35.1792L77.8088 34.2839L78.9203 33.409L78.276 31.5046L76.8617 31.4841L76.5701 30.6221L81.9604 30.8391ZM78.9877 31.517L79.4805 32.9737L81.29 31.5648L81.2832 31.5447L78.9877 31.517Z" fill="#282F81"/>
<path d="M83.3031 35.0851L83.5003 36.3108L79.8279 38.3092L79.8302 38.3231L83.9384 39.0339L84.1334 40.2457L79.1608 41.0457L79.0274 40.217L82.8648 39.5996L82.8626 39.5856L78.8033 38.8241L78.6879 38.1068L82.3034 36.1104L82.3012 36.0965L78.4638 36.7139L78.3305 35.8851L83.3031 35.0851Z" fill="#282F81"/>
<path d="M81.5405 44.5545L81.4642 46.6058L80.7029 46.5775L80.7792 44.5262L81.5405 44.5545Z" fill="#282F81"/>
<path d="M77.9056 54.0385L78.03 53.4881L78.6375 53.4879C78.4278 53.1995 78.2984 52.9292 78.2493 52.677C78.2002 52.4249 78.2094 52.1497 78.2767 51.8516C78.3596 51.4846 78.5007 51.1694 78.7001 50.9059C78.903 50.648 79.1442 50.4445 79.4237 50.2955C79.7033 50.1466 80.0114 50.0523 80.3482 50.0126C80.684 49.9776 81.0285 50 81.3817 50.0798C81.7303 50.1585 82.0486 50.2859 82.3367 50.4619C82.6238 50.6424 82.8615 50.86 83.0498 51.1147C83.2381 51.3694 83.3685 51.6568 83.4408 51.9768C83.5121 52.3015 83.5063 52.6473 83.4234 53.0143C83.3633 53.2803 83.2696 53.5243 83.1423 53.7463C83.0186 53.9738 82.8644 54.1656 82.6797 54.3215C82.4996 54.4785 82.2901 54.5951 82.0511 54.6713C81.8121 54.7475 81.5514 54.7705 81.2689 54.7404L81.4585 53.901C81.6242 53.9143 81.7756 53.8955 81.9124 53.8445C82.0529 53.799 82.1773 53.7283 82.2858 53.6323C82.3943 53.5363 82.4852 53.4218 82.5586 53.289C82.632 53.1561 82.6863 53.0117 82.7216 52.8557C82.7806 52.5943 82.7792 52.3553 82.7172 52.1388C82.6542 51.9269 82.5467 51.7411 82.3948 51.5814C82.2474 51.4228 82.0681 51.2883 81.8568 51.1778C81.6444 51.072 81.4213 50.9927 81.1874 50.9398C80.9534 50.887 80.7178 50.8627 80.4806 50.867C80.2424 50.8758 80.0204 50.9197 79.8145 50.9985C79.6133 51.0784 79.4387 51.2005 79.2907 51.3647C79.1417 51.5335 79.0376 51.7487 78.9785 52.0101C78.9242 52.2293 78.9077 52.4304 78.929 52.6136C78.9549 52.7979 79.0122 52.9603 79.101 53.1008C79.1933 53.247 79.3176 53.3691 79.4738 53.4671C79.6301 53.5651 79.8109 53.6397 80.0163 53.6909L80.3116 52.3836L80.9652 52.5313L80.4927 54.623L77.9056 54.0385Z" fill="#282F81"/>
<path d="M82.2215 57.0846L81.8933 57.903L79.1697 56.8108C79.0125 56.7478 78.8506 56.6905 78.6838 56.6388C78.5153 56.5915 78.3516 56.5765 78.1927 56.5939C78.0363 56.6173 77.8878 56.6844 77.7471 56.7952C77.6047 56.9104 77.4801 57.1011 77.3733 57.3673C77.2666 57.6336 77.2258 57.8553 77.251 58.0326C77.2744 58.2143 77.3354 58.3654 77.434 58.486C77.5351 58.6127 77.6639 58.715 77.8201 58.7929C77.9746 58.8751 78.1304 58.9477 78.2876 59.0107L81.0112 60.1028L80.683 60.9212L77.691 59.7215C77.3898 59.6007 77.1463 59.4498 76.9604 59.2689C76.7746 59.088 76.6394 58.8818 76.5549 58.6503C76.473 58.4249 76.4422 58.1795 76.4625 57.9141C76.4828 57.6486 76.5507 57.3719 76.6662 57.0838C76.7818 56.7957 76.9239 56.5487 77.0926 56.3427C77.2613 56.1368 77.454 55.9785 77.6706 55.8678C77.8899 55.7631 78.1292 55.7096 78.3886 55.7072C78.648 55.7048 78.9282 55.764 79.2294 55.8848L82.2215 57.0846Z" fill="#282F81"/>
<path d="M79.7906 62.7918L79.3149 63.5922L74.9505 63.6737L74.9433 63.6858L78.133 65.5813L77.7042 66.3029L73.3744 63.73L73.8501 62.9296L78.2048 62.8505L78.2157 62.8324L75.032 60.9405L75.4608 60.2189L79.7906 62.7918Z" fill="#282F81"/>
<path d="M76.811 67.6165L74.2585 70.7958L73.6644 70.3188L74.6669 69.0702L71.3336 66.394L71.8856 65.7065L75.2189 68.3827L76.217 67.1396L76.811 67.6165Z" fill="#282F81"/>
<path d="M73.2617 71.9106L72.6193 72.5146L70.6094 70.3765C70.4934 70.2531 70.3707 70.1329 70.2413 70.0158C70.1084 69.9019 69.9662 69.8193 69.8148 69.7681C69.6631 69.7235 69.5002 69.7218 69.3259 69.7629C69.1482 69.8074 68.9548 69.9278 68.7458 70.1243C68.5368 70.3208 68.4064 70.5047 68.3545 70.6761C68.2992 70.8507 68.2908 71.0135 68.3294 71.1644C68.3678 71.3219 68.4415 71.4689 68.5503 71.6053C68.6558 71.745 68.7665 71.8765 68.8825 71.9999L70.8924 74.1379L70.2499 74.7419L68.0419 72.3931C67.8197 72.1567 67.6624 71.9172 67.5701 71.6749C67.4778 71.4325 67.4421 71.1885 67.463 70.943C67.4837 70.7041 67.5591 70.4685 67.6894 70.2364C67.8197 70.0042 67.9979 69.7818 68.224 69.5692C68.4502 69.3566 68.6831 69.1925 68.9229 69.0768C69.1627 68.9611 69.4042 68.8987 69.6473 68.8896C69.8902 68.8871 70.1298 68.9394 70.366 69.0465C70.6023 69.1537 70.8315 69.3254 71.0537 69.5618L73.2617 71.9106Z" fill="#282F81"/>
<path d="M68.6304 76.0626L66.649 77.4264C66.1919 77.741 65.7811 77.8782 65.4166 77.8379C65.0521 77.7977 64.7485 77.6013 64.5059 77.2488C64.3699 77.0513 64.2856 76.8666 64.2531 76.6949C64.2232 76.5271 64.219 76.3758 64.2405 76.2412C64.2646 76.1104 64.3034 76.0009 64.3569 75.9127C64.4065 75.8272 64.4447 75.7666 64.4716 75.731L64.4636 75.7194C64.3963 75.7543 64.3171 75.7802 64.226 75.7972C64.1311 75.8169 64.0287 75.8132 63.9187 75.7861C63.8114 75.7629 63.701 75.7104 63.5876 75.6286C63.4704 75.5495 63.3557 75.4286 63.2438 75.2659C63.0758 75.0219 62.905 74.8111 62.7315 74.6337C62.5568 74.4628 62.4014 74.3614 62.2653 74.3295L63.0439 73.7936C63.1594 73.8453 63.2603 73.9215 63.3466 74.0219C63.429 74.125 63.5049 74.227 63.5742 74.3277C63.7049 74.5175 63.8285 74.6722 63.945 74.7918C64.0643 74.9152 64.1855 75.0002 64.3088 75.0466C64.4348 75.0969 64.5667 75.1061 64.7045 75.074C64.8384 75.0446 64.9886 74.9726 65.1552 74.858L66.2244 74.1221L65.0485 72.4138L65.7748 71.9138L68.6304 76.0626ZM66.6043 74.6741L65.4131 75.494C65.1807 75.6539 65.0418 75.8295 64.9964 76.0206C64.9536 76.2156 65.0082 76.4235 65.1602 76.6443C65.2508 76.776 65.3435 76.8692 65.4383 76.9239C65.5357 76.9824 65.6352 77.011 65.7369 77.0095C65.8348 77.0106 65.9336 76.9883 66.0334 76.9424C66.1292 76.8993 66.2237 76.8457 66.3166 76.7817L67.4962 75.9698L66.6043 74.6741Z" fill="#282F81"/>
<path d="M37.3565 79.6761C37.5195 79.7 37.68 79.7098 37.838 79.7053C37.996 79.7007 38.1408 79.6758 38.2724 79.6304C38.4085 79.5856 38.527 79.5198 38.6277 79.4328C38.7329 79.3465 38.8098 79.2328 38.8583 79.0919L39.4901 79.1849L38.7904 83.9403L37.9412 83.8154L38.435 80.4594L37.2665 80.2875L37.3565 79.6761Z" fill="#282F81"/>
<path d="M42.0558 83.0432C42.0675 83.2405 42.1307 83.403 42.2455 83.5305C42.3651 83.6536 42.5278 83.7186 42.7336 83.7256C42.9441 83.7327 43.1129 83.6834 43.2402 83.5778C43.3721 83.4677 43.4752 83.3315 43.5494 83.1691C43.6237 83.0021 43.6755 82.8252 43.7047 82.6384C43.7386 82.4472 43.7651 82.2717 43.7842 82.1121L43.771 82.0979C43.6594 82.2819 43.5104 82.4212 43.324 82.5156C43.1378 82.6056 42.9349 82.6468 42.7153 82.6394C42.4865 82.6317 42.2797 82.5858 42.0947 82.5017C41.9143 82.4178 41.7601 82.3049 41.632 82.1632C41.5041 82.0169 41.4069 81.8441 41.3403 81.6449C41.2739 81.4412 41.2449 81.2158 41.2532 80.9687C41.261 80.7354 41.3049 80.5216 41.3847 80.3273C41.4647 80.1285 41.5781 79.9582 41.7248 79.8166C41.8718 79.6704 42.0496 79.5596 42.2582 79.4842C42.4669 79.4088 42.7016 79.3755 42.9624 79.3842C43.3009 79.3956 43.5778 79.4714 43.7929 79.6115C44.0082 79.747 44.1738 79.9312 44.2896 80.1641C44.4101 80.3926 44.4904 80.661 44.5304 80.9692C44.5704 81.2774 44.5845 81.6054 44.5728 81.9531C44.5631 82.2414 44.5213 82.5308 44.4474 82.8215C44.378 83.1123 44.2684 83.3765 44.1184 83.6142C43.9685 83.8473 43.7744 84.0355 43.536 84.1786C43.3021 84.3219 43.0159 84.3878 42.6774 84.3764C42.4852 84.3699 42.3056 84.3318 42.1384 84.262C41.9713 84.1923 41.8233 84.098 41.6945 83.9791C41.5703 83.8604 41.4697 83.7196 41.3927 83.5567C41.3157 83.3938 41.276 83.2138 41.2735 83.0168L42.0558 83.0432ZM42.9061 80.035C42.7643 80.0303 42.6398 80.0536 42.5327 80.1049C42.4258 80.1517 42.3365 80.2197 42.2648 80.3089C42.1931 80.3981 42.1369 80.5015 42.0963 80.6192C42.0603 80.7371 42.0401 80.8601 42.0358 80.9882C42.0313 81.1209 42.043 81.2495 42.0709 81.3741C42.1034 81.4943 42.1525 81.6013 42.2181 81.6951C42.2836 81.789 42.368 81.8674 42.4712 81.9304C42.5746 81.9888 42.6972 82.0205 42.839 82.0252C42.9854 82.0302 43.1145 82.007 43.2261 81.9558C43.3378 81.9046 43.4294 81.8344 43.5012 81.7452C43.5776 81.6516 43.6361 81.546 43.6767 81.4282C43.7175 81.306 43.7401 81.1785 43.7446 81.0458C43.7489 80.9177 43.7348 80.7935 43.7022 80.6733C43.6696 80.5532 43.6181 80.4484 43.5479 80.359C43.4823 80.2652 43.3956 80.1889 43.2876 80.1303C43.1797 80.0717 43.0525 80.04 42.9061 80.035Z" fill="#282F81"/>
<path d="M46.0747 82.537L47.526 82.4243L47.3623 80.3157L47.3486 80.3168L46.0747 82.537ZM48.9294 82.9352L48.3132 82.983L48.4015 84.1195L47.6621 84.1769L47.5739 83.0404L45.5201 83.1999L45.46 82.4263L47.29 79.3847L48.0294 79.3272L48.2654 82.3669L48.8815 82.319L48.9294 82.9352Z" fill="#282F81"/>
<path d="M50.9748 80.9084C51.1016 80.8887 51.2257 80.8554 51.3472 80.8087C51.4687 80.762 51.5737 80.7021 51.6622 80.6291C51.7499 80.5516 51.8134 80.4578 51.8527 80.3476C51.8966 80.2366 51.9047 80.1092 51.877 79.9653C51.838 79.763 51.7371 79.6146 51.5744 79.5201C51.4161 79.4248 51.2291 79.3979 51.0134 79.4395C50.8785 79.4655 50.7668 79.515 50.6783 79.588C50.5898 79.661 50.521 79.7512 50.4718 79.8585C50.4262 79.9606 50.3989 80.0731 50.3899 80.196C50.3801 80.3144 50.3892 80.4339 50.4171 80.5544L49.6484 80.7026C49.6132 80.4716 49.6152 80.2521 49.6544 80.0441C49.6927 79.8316 49.7631 79.6408 49.8658 79.4719C49.9729 79.302 50.113 79.1585 50.2862 79.0412C50.4594 78.9239 50.6651 78.8422 50.9034 78.7963C51.0877 78.7608 51.2727 78.7531 51.4584 78.7733C51.6486 78.7925 51.8233 78.8405 51.9826 78.917C52.1464 78.9926 52.2865 79.1031 52.4031 79.2485C52.5189 79.3894 52.5967 79.5632 52.6365 79.77C52.6824 80.0082 52.6688 80.2276 52.5956 80.4282C52.5215 80.6243 52.3776 80.7849 52.1639 80.91L52.1665 80.9235C52.4466 80.9254 52.6816 81.02 52.8716 81.2072C53.0651 81.389 53.1914 81.6327 53.2503 81.9384C53.2936 82.1631 53.2876 82.3741 53.2324 82.5712C53.1763 82.7638 53.0839 82.9378 52.9554 83.0931C52.8259 83.2439 52.6666 83.3726 52.4773 83.479C52.288 83.5854 52.081 83.6603 51.8562 83.7036C51.5821 83.7564 51.3342 83.7646 51.1127 83.728C50.8948 83.6861 50.7024 83.6066 50.5353 83.4897C50.3727 83.3718 50.236 83.2187 50.1251 83.0303C50.0142 82.8419 49.9326 82.6245 49.8805 82.3781L50.6491 82.23C50.6956 82.5194 50.8116 82.7464 50.9972 82.9111C51.1864 83.0705 51.4316 83.1211 51.7328 83.063C51.989 83.0137 52.1887 82.9006 52.3317 82.7238C52.4784 82.5417 52.5258 82.3158 52.4738 82.0461C52.4383 81.8618 52.3742 81.7226 52.2815 81.6286C52.1888 81.5346 52.0788 81.4719 51.9515 81.4405C51.8234 81.4046 51.6838 81.3942 51.5329 81.4093C51.3865 81.4235 51.2373 81.4476 51.0853 81.4815L50.9748 80.9084Z" fill="#282F81"/>
<defs>
<filter id="filter0_d_2485_117" x="27.3013" y="14.1631" width="32.5029" height="60.4101" filterUnits="userSpaceOnUse" color-interpolation-filters="sRGB">
<feFlood flood-opacity="0" result="BackgroundImageFix"/>
<feColorMatrix in="SourceAlpha" type="matrix" values="0 0 0 0 0 0 0 0 0 0 0 0 0 0 0 0 0 0 127 0" result="hardAlpha"/>
<feOffset dy="0.571283"/>
<feComposite in2="hardAlpha" operator="out"/>
<feColorMatrix type="matrix" values="0 0 0 0 0.819608 0 0 0 0 0.431373 0 0 0 0 0.14902 0 0 0 1 0"/>
<feBlend mode="normal" in2="BackgroundImageFix" result="effect1_dropShadow_2485_117"/>
<feBlend mode="normal" in="SourceGraphic" in2="effect1_dropShadow_2485_117" result="shape"/>
</filter>
<linearGradient id="paint0_linear_2485_117" x1="51.0538" y1="59.0072" x2="53.6246" y2="62.7206" gradientUnits="userSpaceOnUse">
<stop stop-color="#DA7927"/>
<stop offset="1" stop-color="#ECA12C"/>
</linearGradient>
<linearGradient id="paint1_linear_2485_117" x1="49.9112" y1="46.7265" x2="55.8379" y2="50.6956" gradientUnits="userSpaceOnUse">
<stop stop-color="#DA7927"/>
<stop offset="1" stop-color="#ECA12C"/>
</linearGradient>
<linearGradient id="paint2_linear_2485_117" x1="46.7842" y1="39.3895" x2="54.0877" y2="36.9735" gradientUnits="userSpaceOnUse">
<stop stop-color="#DA7927"/>
<stop offset="1" stop-color="#ECA12C"/>
</linearGradient>
<linearGradient id="paint3_linear_2485_117" x1="45.0554" y1="29.5873" x2="53.339" y2="26.1596" gradientUnits="userSpaceOnUse">
<stop stop-color="#DA7927"/>
<stop offset="1" stop-color="#ECA12C"/>
</linearGradient>
<linearGradient id="paint4_linear_2485_117" x1="44.484" y1="21.018" x2="48.2329" y2="16.3503" gradientUnits="userSpaceOnUse">
<stop stop-color="#DA7927"/>
<stop offset="0.998073" stop-color="#ECA12C"/>
</linearGradient>
<linearGradient id="paint5_linear_2485_117" x1="41.9132" y1="19.8754" x2="42.7701" y2="22.4462" gradientUnits="userSpaceOnUse">
<stop stop-color="#DA7927"/>
<stop offset="1" stop-color="#ECA12C"/>
</linearGradient>
<linearGradient id="paint6_linear_2485_117" x1="37.8147" y1="27.2773" x2="37.3384" y2="34.0261" gradientUnits="userSpaceOnUse">
<stop stop-color="#DA7927"/>
<stop offset="1" stop-color="#ECA12C"/>
</linearGradient>
<linearGradient id="paint7_linear_2485_117" x1="35.3324" y1="34.9126" x2="34.7995" y2="43.357" gradientUnits="userSpaceOnUse">
<stop stop-color="#DA7927"/>
<stop offset="1" stop-color="#ECA12C"/>
</linearGradient>
<linearGradient id="paint8_linear_2485_117" x1="34.201" y1="45.2982" x2="33.6297" y2="54.4388" gradientUnits="userSpaceOnUse">
<stop stop-color="#DA7927"/>
<stop offset="1" stop-color="#ECA12C"/>
</linearGradient>
<linearGradient id="paint9_linear_2485_117" x1="37.9143" y1="57.0092" x2="41.8881" y2="80.217" gradientUnits="userSpaceOnUse">
<stop stop-color="#DA7927"/>
<stop offset="1" stop-color="#ECA12C"/>
</linearGradient>
<radialGradient id="paint10_radial_2485_117" cx="0" cy="0" r="1" gradientUnits="userSpaceOnUse" gradientTransform="translate(45.0676 62.5134) rotate(-90.3527) scale(45.8064 18.1207)">
<stop stop-color="#F1B415"/>
<stop offset="0.698632" stop-color="#F1B415"/>
<stop offset="1" stop-color="#F1B415" stop-opacity="0"/>
</radialGradient>
</defs>
</svg>
