<svg width="102" height="44" viewBox="0 0 102 44" fill="none" xmlns="http://www.w3.org/2000/svg">
<path fill-rule="evenodd" clip-rule="evenodd" d="M41.7156 42.09V41.88L41.6106 41.805H41.0856V36.945H41.6106L41.7156 36.84V36.63L41.6106 36.54H39.9606L39.8706 36.63V36.855L39.9906 36.945H40.5306V41.805H40.0056L39.9006 41.88V42.105L40.0056 42.21H41.6256L41.7156 42.09Z" fill="white"/>
<path fill-rule="evenodd" clip-rule="evenodd" d="M46.0656 42.06V39.63C46.0656 38.73 45.7206 38.145 44.7606 38.145C44.2806 38.145 43.7706 38.325 43.3956 38.67V38.385L43.2606 38.235H43.0056L42.8706 38.385V42.06L43.0056 42.21H43.2606L43.3956 42.06V39.09C43.7106 38.79 44.2056 38.55 44.6256 38.55C45.3906 38.55 45.5406 39.03 45.5406 39.705V42.045L45.6756 42.195H45.9456L46.0656 42.06Z" fill="white"/>
<path fill-rule="evenodd" clip-rule="evenodd" d="M49.2303 42.06V42.045L49.2003 41.82L49.1403 41.775H49.0653C48.9603 41.805 48.7353 41.865 48.5553 41.865C48.3303 41.865 48.1653 41.805 48.0603 41.715C47.9253 41.58 47.9103 41.34 47.9103 41.04V38.61H48.9003L48.9753 38.52V38.325L48.9003 38.235H47.9103V37.2L47.8053 37.065H47.7753H47.7603L47.4903 37.11L47.3703 37.26V38.22H46.8753L46.8003 38.31V38.52L46.8753 38.61H47.3703V40.965C47.3703 41.415 47.3853 41.76 47.6103 42C47.8053 42.18 48.1503 42.27 48.4803 42.27C48.7203 42.27 48.9903 42.21 49.1553 42.15L49.2303 42.06Z" fill="white"/>
<path fill-rule="evenodd" clip-rule="evenodd" d="M52.5154 39.705L52.5004 39.885H50.2204C50.2804 39.195 50.7304 38.565 51.4954 38.565C52.1854 38.55 52.5154 39.075 52.5154 39.705ZM53.0404 40.02V39.87C53.0404 38.895 52.4854 38.16 51.5104 38.16C50.3554 38.16 49.6504 39.075 49.6504 40.245C49.6504 41.46 50.2804 42.3 51.5404 42.3C51.8854 42.3 52.3954 42.24 52.7254 42.075L52.8154 41.985V41.925L52.7704 41.745L52.6804 41.67L52.6204 41.685C52.3804 41.79 51.9454 41.865 51.5854 41.865C50.6404 41.865 50.1904 41.145 50.1904 40.275H52.0954H52.8154C53.0254 40.245 53.0404 40.2 53.0404 40.02Z" fill="white"/>
<path fill-rule="evenodd" clip-rule="evenodd" d="M55.6805 38.265V38.25L55.6205 38.175L55.3805 38.145C54.9605 38.145 54.6155 38.415 54.4505 38.67L54.4355 38.385L54.3005 38.235H54.0455L53.8955 38.385V42.06L54.0455 42.21H54.3005L54.4355 42.06V39.12C54.6455 38.805 54.9905 38.565 55.2905 38.565L55.5455 38.61H55.5605L55.6205 38.535L55.6805 38.265Z" fill="white"/>
<path fill-rule="evenodd" clip-rule="evenodd" d="M58.8003 40.83C58.6503 41.34 58.2003 41.82 57.5853 41.82C57.0003 41.82 56.4753 41.295 56.4753 40.245C56.4753 39.195 57.0003 38.55 57.7053 38.55C58.1553 38.55 58.5753 38.805 58.7853 39.255V40.83H58.8003ZM59.6853 42.12V41.925L59.5954 41.82H59.5353L59.3703 41.73C59.3403 41.655 59.3403 41.505 59.3403 41.28V38.385L59.2204 38.235H58.9803L58.8303 38.37L58.8153 38.67C58.5453 38.325 58.0953 38.145 57.7053 38.145C56.7453 38.145 55.9653 38.925 55.9653 40.29C55.9653 41.31 56.4453 42.27 57.5703 42.27C58.1253 42.27 58.6654 41.91 58.8454 41.505V41.61C58.8454 41.94 58.9953 42.21 59.3103 42.21H59.6404L59.6853 42.12Z" fill="white"/>
<path fill-rule="evenodd" clip-rule="evenodd" d="M63.3304 41.955L63.3154 41.895L63.2704 41.73L63.1804 41.655L63.1354 41.685C62.8954 41.79 62.5354 41.88 62.1754 41.88C61.2004 41.88 60.8254 41.025 60.8254 40.185C60.8254 39.18 61.3654 38.535 62.1904 38.535C62.5354 38.535 62.8354 38.655 63.1054 38.76L63.1654 38.79L63.2404 38.7L63.3004 38.55V38.475L63.2254 38.4C62.9704 38.265 62.5504 38.145 62.1904 38.145C60.9754 38.145 60.2554 39.03 60.2554 40.2C60.2554 41.415 60.8404 42.27 62.1454 42.27C62.4904 42.27 62.8804 42.21 63.2104 42.045L63.3304 41.955Z" fill="white"/>
<path fill-rule="evenodd" clip-rule="evenodd" d="M66.0455 42.06V42.045L66.0155 41.82L65.9555 41.775H65.8955C65.7905 41.805 65.5805 41.865 65.3855 41.865C65.1455 41.865 64.9955 41.805 64.8905 41.715C64.7555 41.58 64.7405 41.34 64.7405 41.04V38.61H65.7155L65.8205 38.52V38.325L65.7455 38.235H64.7405V37.2L64.6355 37.065H64.6205L64.3355 37.11L64.2155 37.26V38.22H63.7205L63.6455 38.31V38.52L63.7355 38.61H64.2155V40.965C64.2155 41.415 64.2155 41.76 64.4855 42C64.6505 42.18 65.0105 42.27 65.3255 42.27C65.5805 42.27 65.8505 42.21 66.0005 42.15L66.0455 42.06Z" fill="white"/>
<path fill-rule="evenodd" clip-rule="evenodd" d="M67.3658 42.06V38.385L67.2308 38.235H66.9758L66.8408 38.385V42.06L66.9758 42.21H67.2308L67.3658 42.06ZM67.4558 37.305C67.4558 37.11 67.3058 36.975 67.1108 36.975C66.9158 36.975 66.7808 37.11 66.7808 37.305C66.7808 37.485 66.9008 37.62 67.1108 37.62C67.3058 37.62 67.4558 37.5 67.4558 37.305Z" fill="white"/>
<path fill-rule="evenodd" clip-rule="evenodd" d="M71.4755 40.23C71.4755 41.04 71.1455 41.88 70.1855 41.88C69.2255 41.88 68.9405 40.995 68.9405 40.2C68.9405 39.435 69.2405 38.55 70.2155 38.55C71.1755 38.55 71.4755 39.405 71.4755 40.23ZM72.0455 40.23C72.0455 39.015 71.4755 38.145 70.2455 38.145C69.0455 38.145 68.4155 39.06 68.4155 40.23C68.4155 41.385 68.9705 42.285 70.1855 42.285C71.3855 42.27 72.0455 41.37 72.0455 40.23Z" fill="white"/>
<path fill-rule="evenodd" clip-rule="evenodd" d="M76.1704 42.06V39.63C76.1704 38.73 75.8404 38.145 74.8804 38.145C74.4154 38.145 73.8905 38.325 73.5005 38.67L73.4855 38.385L73.3505 38.235H73.0955L72.9604 38.385V42.06L73.0955 42.21H73.3655L73.5005 42.06V39.09C73.8305 38.79 74.3255 38.55 74.7305 38.55C75.4805 38.55 75.6605 39.03 75.6605 39.705V42.045L75.7954 42.195H76.0655L76.1704 42.06Z" fill="white"/>
<path fill-rule="evenodd" clip-rule="evenodd" d="M82.9503 39.405C82.9503 40.17 82.7554 40.83 82.3054 41.28C81.9004 41.685 81.3603 41.745 80.5353 41.745H79.8153V36.975H80.6853C81.2703 36.975 81.8103 37.065 82.2303 37.41C82.6953 37.815 82.9503 38.58 82.9503 39.405ZM83.5803 39.405C83.5803 38.28 83.1754 37.395 82.4704 36.945C81.9754 36.615 81.4803 36.54 80.3703 36.54H79.4553C79.2903 36.54 79.2153 36.6 79.2153 36.75V42.03C79.2153 42.165 79.2453 42.21 79.4103 42.21H80.7303C81.5553 42.21 82.2903 42.03 82.7553 41.61C83.2803 41.115 83.5803 40.335 83.5803 39.405Z" fill="white"/>
<path fill-rule="evenodd" clip-rule="evenodd" d="M87.2107 39.705V39.885H84.9157C84.9907 39.195 85.4407 38.565 86.1907 38.565C86.8957 38.55 87.2107 39.075 87.2107 39.705ZM87.7507 40.02V39.87C87.7507 38.895 87.1807 38.16 86.2057 38.16C85.0507 38.16 84.3457 39.075 84.3457 40.245C84.3457 41.46 84.9757 42.3 86.2357 42.3C86.5657 42.3 87.0907 42.24 87.4207 42.075L87.4957 41.985V41.925L87.4357 41.745L87.3607 41.67L87.3157 41.685C87.0457 41.79 86.6407 41.865 86.2807 41.865C85.3207 41.865 84.9007 41.145 84.9007 40.275H86.7907H87.4957C87.7207 40.245 87.7507 40.2 87.7507 40.02Z" fill="white"/>
<path fill-rule="evenodd" clip-rule="evenodd" d="M90.9155 41.07C90.9155 40.575 90.5555 40.23 90.0755 40.02L89.4905 39.78C89.1155 39.615 88.9055 39.465 88.9055 39.12C88.9055 38.775 89.2054 38.52 89.6704 38.52C89.9404 38.52 90.3305 38.61 90.5255 38.715L90.5854 38.73L90.6605 38.655L90.7355 38.415L90.7655 38.4L90.6905 38.325C90.3455 38.16 90.0304 38.1 89.6704 38.1C88.9654 38.1 88.3505 38.49 88.3505 39.15C88.3505 39.645 88.7105 39.96 89.2055 40.155L89.7005 40.365C90.1205 40.53 90.3905 40.725 90.3905 41.1C90.3905 41.55 90.0305 41.82 89.4905 41.82C89.2055 41.82 88.8154 41.715 88.5454 41.595L88.5005 41.565L88.4405 41.625L88.3505 41.895L88.3354 41.925L88.4105 42C88.6205 42.105 89.0405 42.24 89.4455 42.24C90.3755 42.27 90.9155 41.775 90.9155 41.07Z" fill="white"/>
<path fill-rule="evenodd" clip-rule="evenodd" d="M92.4007 42.06V38.385L92.2657 38.235H92.0107L91.8756 38.385V42.06L92.0107 42.21H92.2657L92.4007 42.06ZM92.4757 37.305C92.4757 37.11 92.3256 36.975 92.1156 36.975C91.9356 36.975 91.7856 37.11 91.7856 37.305C91.7856 37.485 91.9356 37.62 92.1156 37.62C92.3106 37.62 92.4757 37.5 92.4757 37.305Z" fill="white"/>
<path fill-rule="evenodd" clip-rule="evenodd" d="M96.3458 41.19C96.1058 41.535 95.6108 41.775 95.1608 41.775C94.2458 41.775 93.9608 40.92 93.9608 40.17C93.9608 39.225 94.4108 38.55 95.2358 38.55C95.7008 38.55 96.1658 38.85 96.3308 39.225V41.19H96.3458ZM96.8858 42.03V41.19V38.385L96.7508 38.235H96.4958L96.3458 38.37L96.3308 38.67C96.0758 38.325 95.6258 38.145 95.2058 38.145C94.0508 38.145 93.4058 39.105 93.4058 40.2C93.4058 41.28 93.9158 42.21 95.1008 42.21C95.5358 42.21 96.0608 42.015 96.3308 41.685V42.075C96.3308 42.66 96.2258 43.05 96.0008 43.26C95.7758 43.5 95.4608 43.575 95.0708 43.575C94.7108 43.575 94.3958 43.44 94.0808 43.305L93.9908 43.29L93.9158 43.365L93.8408 43.575L93.8258 43.62L93.9008 43.71C94.2158 43.86 94.6808 43.995 95.0558 43.995C95.5958 43.995 96.0158 43.83 96.3008 43.605C96.7208 43.29 96.8858 42.75 96.8858 42.03Z" fill="white"/>
<path fill-rule="evenodd" clip-rule="evenodd" d="M101.221 42.06V39.63C101.221 38.73 100.876 38.145 99.9157 38.145C99.4507 38.145 98.9107 38.325 98.5357 38.67L98.5207 38.385L98.3857 38.235H98.1307L98.0107 38.385V42.06L98.1307 42.21H98.4007L98.5357 42.06V39.09C98.8507 38.79 99.3607 38.55 99.7657 38.55C100.516 38.55 100.681 39.03 100.681 39.705V42.045L100.816 42.195H101.071L101.221 42.06Z" fill="white"/>
<path fill-rule="evenodd" clip-rule="evenodd" d="M46.3656 8.89498C46.3656 9.14998 46.3206 9.40498 46.2156 9.64498C46.1256 9.88498 45.9606 10.11 45.7356 10.305C45.5106 10.5 45.2406 10.665 44.9106 10.8C44.5806 10.92 44.1906 10.98 43.7256 10.98C43.3956 10.98 43.0806 10.935 42.7956 10.845C42.5106 10.755 42.2706 10.635 42.0606 10.53C41.8506 10.395 41.6706 10.275 41.5356 10.155C41.3856 10.035 41.2956 9.92998 41.2356 9.85498V8.83498H39.8706V12.27H41.2506V11.505C41.3256 11.595 41.4456 11.67 41.5956 11.76C41.7606 11.865 41.9256 11.94 42.1356 12.045C42.3306 12.135 42.5856 12.21 42.8706 12.27C43.1406 12.33 43.4556 12.345 43.8006 12.345C44.4306 12.345 44.9706 12.27 45.4806 12.105C45.9906 11.94 46.4256 11.7 46.7706 11.4C47.1456 11.1 47.4156 10.725 47.6106 10.29C47.8056 9.83998 47.9106 9.35998 47.9106 8.80499C47.9106 7.81498 47.5806 7.01998 46.9356 6.40498C46.3056 5.80498 45.3456 5.30998 44.0856 4.96498C43.5906 4.82998 43.1556 4.69498 42.8406 4.57499C42.4956 4.45499 42.2256 4.30498 42.0306 4.16998C41.8356 4.01998 41.6856 3.86998 41.6106 3.68998C41.5356 3.50998 41.5056 3.29998 41.5056 3.04498C41.5056 2.81998 41.5506 2.62498 41.6706 2.42998C41.7756 2.21998 41.9256 2.03998 42.1356 1.87498C42.3456 1.72498 42.6006 1.60498 42.8706 1.51498C43.1706 1.40998 43.4856 1.36498 43.8456 1.36498C44.1606 1.36498 44.4306 1.39498 44.6706 1.43998C44.9106 1.48498 45.1506 1.54498 45.3306 1.63498C45.5106 1.70998 45.6756 1.79998 45.8256 1.85998C45.9906 1.94998 46.0956 2.02498 46.1856 2.09998V2.96998H47.5656V0.0899847H46.1856V0.599984C45.9306 0.449984 45.6606 0.299984 45.2856 0.194984C44.9106 0.0599842 44.4606 -1.52588e-05 43.8606 -1.52588e-05C43.2906 -1.52588e-05 42.7656 0.0749842 42.3006 0.224984C41.8056 0.374984 41.3856 0.584984 41.0556 0.854984C40.6956 1.12498 40.4106 1.45498 40.2456 1.85998C40.0656 2.24998 39.9456 2.71498 39.9456 3.20998C39.9456 3.70498 40.0356 4.12498 40.2006 4.46998C40.3806 4.79998 40.6206 5.09998 40.8906 5.33998C41.1606 5.57998 41.5206 5.77498 41.9106 5.93998C42.3006 6.10498 42.7056 6.23998 43.1556 6.34498C43.7556 6.49498 44.2656 6.64498 44.6556 6.80998C45.0756 6.98998 45.4056 7.16998 45.6606 7.36498C45.9006 7.57498 46.0956 7.79998 46.2006 8.03998C46.3056 8.32498 46.3656 8.59498 46.3656 8.89498Z" fill="white"/>
<path fill-rule="evenodd" clip-rule="evenodd" d="M57.3007 2.59498V3.50998H58.8607V0.179984H57.3007V0.794984C57.0007 0.584984 56.6407 0.389984 56.1607 0.254984C55.6807 0.104984 55.0657 0.0149841 54.2707 0.0149841C53.4607 0.0149841 52.6957 0.164984 51.9907 0.449984C51.2707 0.734984 50.6407 1.15498 50.1157 1.69498C49.5607 2.21998 49.1407 2.89498 48.8257 3.65998C48.5257 4.42498 48.3457 5.27998 48.3457 6.25498C48.3457 7.12498 48.5257 7.94998 48.8257 8.71498C49.1407 9.46498 49.5607 10.125 50.1157 10.665C50.6407 11.22 51.2707 11.64 51.9907 11.94C52.6957 12.255 53.4607 12.405 54.2707 12.405C54.9307 12.405 55.4707 12.36 55.9507 12.255C56.4157 12.15 56.8357 12.015 57.1807 11.865C57.5557 11.715 57.8557 11.55 58.1257 11.355C58.3957 11.16 58.6507 10.965 58.8757 10.785L57.9607 9.40498C57.7507 9.56998 57.5407 9.73498 57.3307 9.88498C57.1057 10.05 56.8507 10.2 56.5957 10.305C56.3107 10.44 55.9807 10.53 55.6357 10.62C55.2457 10.71 54.8407 10.725 54.3157 10.725C53.7457 10.725 53.1757 10.62 52.6807 10.41C52.1557 10.185 51.7057 9.88498 51.3157 9.50998C50.9257 9.10498 50.6257 8.62498 50.4007 8.08498C50.1757 7.52998 50.0707 6.91498 50.0707 6.23998C50.0707 5.51998 50.1757 4.90498 50.3857 4.33498C50.5957 3.76498 50.9107 3.28498 51.2707 2.90998C51.6607 2.50498 52.1257 2.18998 52.6507 1.99498C53.1757 1.78498 53.7607 1.67998 54.3757 1.67998C55.1707 1.67998 55.7857 1.76998 56.2507 1.96498C56.7307 2.17498 57.0757 2.38498 57.3007 2.59498Z" fill="white"/>
<path fill-rule="evenodd" clip-rule="evenodd" d="M62.6105 10.89V6.76498H63.5405L67.1405 12.27H69.3305V10.89H68.1905L65.3855 6.76498C65.5955 6.76498 65.8655 6.70498 66.1955 6.59998C66.5255 6.49498 66.8255 6.31498 67.1105 6.07498C67.3955 5.83498 67.6655 5.48998 67.8605 5.08498C68.0855 4.67998 68.1755 4.15498 68.1755 3.50998C68.1755 3.05998 68.1155 2.63998 67.9505 2.21998C67.8005 1.81498 67.5905 1.45498 67.3055 1.15498C67.0205 0.839979 66.6755 0.599978 66.2855 0.419978C65.8655 0.254978 65.4005 0.164978 64.9055 0.164978H59.7905V1.54498H60.9155V10.89H59.7905V12.27H63.8255V10.89H62.6105ZM66.4355 3.50998C66.4355 4.03498 66.3155 4.48498 66.0455 4.84498C65.7755 5.20498 65.3255 5.38498 64.6805 5.38498H62.6105V1.57498H64.6805C65.0105 1.57498 65.2805 1.63498 65.5055 1.75498C65.7455 1.85998 65.9255 2.00998 66.0605 2.18998C66.1805 2.39998 66.2855 2.57998 66.3455 2.81998C66.4205 3.04498 66.4355 3.28498 66.4355 3.50998Z" fill="white"/>
<path fill-rule="evenodd" clip-rule="evenodd" d="M70.0806 10.89V12.27H78.6906V9.49498H77.3106V10.89H72.9456V6.61498H75.7656V5.21998H72.9456V1.54498H77.3106V2.75998H78.6906V0.164978H70.0806V1.54498H71.2206V10.89H70.0806Z" fill="white"/>
<path fill-rule="evenodd" clip-rule="evenodd" d="M79.6655 10.89V12.27H88.2755V9.49498H86.8955V10.89H82.5305V6.61498H85.3505V5.21998H82.5305V1.54498H86.8955V2.75998H88.2755V0.164978H79.6655V1.54498H80.8055V10.89H79.6655Z" fill="white"/>
<path fill-rule="evenodd" clip-rule="evenodd" d="M93.1957 12.27V10.89H92.0557V3.20998L98.3857 12.27H100.066V1.54498H101.161V0.164978H97.2007V1.54498H98.3557V9.08998L91.9807 0.164978H89.2207V1.54498H90.3157V10.89H89.2207V12.27H93.1957Z" fill="white"/>
<path fill-rule="evenodd" clip-rule="evenodd" d="M43.9506 30.945V25.08H45.2556L50.4156 32.94H53.5506V30.945H51.9156L47.9256 25.08C48.2256 25.05 48.6156 24.96 49.0656 24.81C49.5006 24.645 49.9506 24.39 50.3556 24.06C50.7906 23.7 51.1356 23.235 51.4356 22.65C51.7356 22.065 51.8856 21.315 51.8856 20.4C51.8856 19.755 51.7956 19.155 51.5556 18.555C51.3456 17.97 51.0306 17.46 50.6256 17.025C50.2206 16.59 49.7256 16.245 49.1406 15.975C48.5556 15.705 47.9106 15.6 47.1756 15.6H39.8706V17.58H41.4756V30.945H39.8706V32.94H45.6606V30.945H43.9506ZM49.4406 20.4C49.4406 21.15 49.2456 21.78 48.8706 22.29C48.4956 22.815 47.8506 23.07 46.9206 23.07H43.9506V17.64H46.9206C47.3856 17.64 47.7906 17.73 48.1056 17.88C48.4356 18.03 48.7056 18.255 48.8856 18.525C49.0806 18.795 49.2306 19.095 49.3056 19.41C49.3956 19.74 49.4406 20.07 49.4406 20.4Z" fill="white"/>
<path fill-rule="evenodd" clip-rule="evenodd" d="M68.7157 24.3C68.7157 25.155 68.5657 25.965 68.2957 26.745C68.0257 27.51 67.6357 28.2 67.0957 28.815C66.5407 29.43 65.8957 29.895 65.1007 30.255C64.3207 30.6 63.3907 30.795 62.3557 30.795C61.3207 30.795 60.4057 30.6 59.5957 30.255C58.8157 29.895 58.1557 29.415 57.6157 28.815C57.0757 28.2 56.6707 27.51 56.4007 26.745C56.1157 25.965 55.9657 25.14 55.9657 24.3C55.9657 23.445 56.1157 22.635 56.4007 21.84C56.6707 21.06 57.0757 20.355 57.6157 19.755C58.1557 19.14 58.8007 18.66 59.5957 18.3C60.4057 17.955 61.3057 17.76 62.3557 17.76C63.4057 17.76 64.3207 17.955 65.1007 18.3C65.8957 18.66 66.5557 19.14 67.0957 19.755C67.6357 20.355 68.0407 21.06 68.2957 21.84C68.5657 22.635 68.7157 23.445 68.7157 24.3ZM53.4907 24.3C53.4907 25.41 53.6857 26.49 54.0757 27.54C54.4507 28.62 54.9907 29.55 55.7257 30.39C56.4757 31.23 57.3907 31.92 58.4857 32.43C59.5957 32.925 60.8707 33.195 62.3407 33.195C63.7957 33.195 65.1007 32.925 66.2107 32.43C67.3057 31.92 68.2357 31.23 68.9707 30.39C69.7207 29.565 70.2607 28.62 70.6357 27.54C71.0107 26.475 71.2057 25.41 71.2057 24.3C71.2057 23.175 71.0107 22.08 70.6357 21.03C70.2607 19.95 69.7207 19.02 68.9707 18.18C68.2357 17.355 67.3057 16.68 66.2107 16.17C65.1007 15.645 63.8107 15.405 62.3407 15.405C60.8557 15.405 59.5807 15.66 58.4857 16.17C57.3907 16.68 56.4757 17.34 55.7257 18.18C54.9907 19.02 54.4507 19.965 54.0757 21.03C53.6857 22.08 53.4907 23.175 53.4907 24.3Z" fill="white"/>
<path fill-rule="evenodd" clip-rule="evenodd" d="M87.3604 24.3C87.3604 25.155 87.2254 25.965 86.9404 26.745C86.6704 27.51 86.2654 28.2 85.7104 28.815C85.1854 29.43 84.5254 29.895 83.7304 30.255C82.9354 30.6 82.0204 30.795 80.9704 30.795C79.9504 30.795 79.0354 30.6 78.2404 30.255C77.4454 29.895 76.7854 29.415 76.2454 28.815C75.7204 28.2 75.3004 27.51 75.0304 26.745C74.7454 25.965 74.5954 25.14 74.5954 24.3C74.5954 23.445 74.7454 22.635 75.0304 21.84C75.3004 21.06 75.7204 20.355 76.2454 19.755C76.7704 19.14 77.4454 18.66 78.2404 18.3C79.0354 17.955 79.9504 17.76 80.9704 17.76C82.0204 17.76 82.9204 17.955 83.7304 18.3C84.5254 18.66 85.1854 19.14 85.7104 19.755C86.2504 20.355 86.6704 21.06 86.9404 21.84C87.2104 22.635 87.3604 23.445 87.3604 24.3ZM72.1504 24.3C72.1504 25.41 72.3304 26.49 72.7054 27.54C73.0954 28.62 73.6354 29.55 74.3704 30.39C75.1054 31.23 76.0204 31.92 77.1304 32.43C78.2254 32.925 79.5304 33.195 80.9854 33.195C82.4554 33.195 83.7454 32.925 84.8704 32.43C85.9654 31.92 86.8804 31.23 87.6004 30.39C88.3504 29.565 88.8904 28.62 89.2804 27.54C89.6554 26.475 89.8354 25.41 89.8354 24.3C89.8354 23.175 89.6404 22.08 89.2804 21.03C88.9054 19.95 88.3504 19.02 87.6004 18.18C86.8654 17.355 85.9504 16.68 84.8704 16.17C83.7454 15.645 82.4704 15.405 80.9854 15.405C79.5304 15.405 78.2404 15.66 77.1304 16.17C76.0204 16.68 75.1054 17.34 74.3704 18.18C73.6354 19.02 73.0954 19.965 72.7054 21.03C72.3304 22.08 72.1504 23.175 72.1504 24.3Z" fill="white"/>
<path fill-rule="evenodd" clip-rule="evenodd" d="M98.3854 32.94V30.945H96.7204V17.58H99.1954V19.92H101.16V15.6H89.7754V19.92H91.7554V17.58H94.2454V30.945H92.6104V32.94H98.3854Z" fill="white"/>
<path fill-rule="evenodd" clip-rule="evenodd" d="M2.80551 0.134996H13.0955C12.7505 8.085 13.1855 9.66 8.43051 17.895C4.35051 24.81 2.23551 27.645 2.65551 28.5C3.36051 30.015 6.82551 28.695 7.90551 26.745C9.01551 25.17 8.95551 24.03 10.3655 22.965C10.9355 22.665 11.8955 23.055 12.3905 23.385C15.8105 25.89 11.6705 36.555 13.6055 40.185C13.7255 40.455 14.1005 40.8 14.5055 40.875C15.5855 40.875 15.7655 40.26 16.1105 38.28C16.5905 35.58 16.9955 30.12 17.8355 28.365C18.4655 27.285 19.2305 28.455 19.3655 28.95C20.3855 32.745 19.9355 40.98 22.6505 40.875C23.0705 40.845 23.4755 40.455 23.5355 39.675C23.8205 36.69 22.7405 30.51 22.6055 28.32C22.5605 27.345 23.3255 27.21 23.7005 27.525C25.0805 29.265 25.4255 29.925 26.7905 31.68C28.0505 33.495 28.9805 35.625 30.5705 35.085C32.3855 34.545 27.3005 27.255 26.2505 24.765C26.1605 24.525 26.2955 24.33 26.5655 24.48C29.0705 25.83 30.9305 29.295 32.1905 28.59C33.2855 27.57 27.7205 21.87 26.4755 19.89C25.3655 18.09 23.1005 11.595 23.0255 9.06C22.9655 6.66 23.1155 3.33 23.4005 0.104996H30.3905C31.9505 0.104996 33.2405 1.365 33.2405 2.925V39.33C33.2405 40.875 31.9655 42.15 30.3905 42.15H2.83552C1.27552 42.15 0.000518804 40.875 0.000518804 39.33V2.925C-0.0294812 1.395 1.24551 0.134996 2.80551 0.134996Z" fill="white"/>
<path fill-rule="evenodd" clip-rule="evenodd" d="M20.9106 38.955C20.8806 39.435 20.8057 39.885 20.7307 40.305C20.6407 40.71 20.2506 40.95 19.9506 41.01C17.4606 41.115 17.9557 34.665 17.1907 30.735C17.3707 29.73 17.5956 28.905 17.8356 28.395C18.4656 27.315 19.2306 28.485 19.3657 28.98C20.0707 31.575 20.0856 36.285 20.9106 38.955ZM27.7956 33.285C27.4656 32.775 27.1357 32.25 26.7757 31.71C25.4107 29.955 25.0807 29.295 23.6857 27.555C23.3257 27.24 22.5456 27.375 22.5906 28.35C22.6206 28.74 22.6656 29.265 22.7407 29.865C23.2057 30.525 23.5956 31.26 24.1206 32.1C25.2906 34.005 26.5656 36.72 27.7056 35.715C28.2306 35.325 28.1556 34.425 27.7956 33.285ZM28.4256 25.935C29.4756 27.525 30.1807 28.89 29.6857 29.31C29.3407 29.445 28.9357 29.295 28.5157 28.965C27.5707 27.3 26.6107 25.71 26.2207 24.78C26.1307 24.54 26.2656 24.345 26.5356 24.495C27.2106 24.885 27.8406 25.41 28.4256 25.935ZM2.61065 28.065C2.82065 26.82 4.87565 23.895 8.43065 17.895C12.7506 11.505 13.0207 9.05998 13.0957 0.134979H11.8507C11.2507 7.58998 11.2507 10.815 6.58565 17.34C2.13065 24.015 -0.134354 26.73 0.225646 27.63C0.540646 28.38 1.51565 28.425 2.61065 28.065ZM13.0957 38.265C12.6757 40.11 12.4507 40.65 11.4007 40.605C11.0107 40.53 10.6507 40.155 10.5307 39.885C8.80565 36.165 14.3106 25.62 10.2606 23.07L10.3656 22.98C10.9356 22.68 11.8957 23.07 12.3907 23.4C15.3307 25.545 12.6757 33.72 13.0957 38.265Z" fill="white"/>
</svg>
